<svg version="1.1" viewBox="0.0 0.0 600.0 371.0" fill="none" stroke="none" stroke-linecap="square" stroke-miterlimit="10" width="600" height="371" xmlns:xlink="http://www.w3.org/1999/xlink" xmlns="http://www.w3.org/2000/svg"><path fill="#ffffff" d="M0 0L600.0 0L600.0 371.0L0 371.0L0 0Z" fill-rule="nonzero"/><path stroke="#333333" stroke-width="1.0" stroke-linecap="butt" d="M137.5 54.5L137.5 300.5" fill-rule="nonzero"/><path stroke="#cccccc" stroke-width="1.0" stroke-linecap="butt" d="M248.5 54.5L248.5 300.5" fill-rule="nonzero"/><path stroke="#cccccc" stroke-width="1.0" stroke-linecap="butt" d="M359.5 54.5L359.5 300.5" fill-rule="nonzero"/><path stroke="#cccccc" stroke-width="1.0" stroke-linecap="butt" d="M470.5 54.5L470.5 300.5" fill-rule="nonzero"/><path stroke="#cccccc" stroke-width="1.0" stroke-linecap="butt" d="M581.5 54.5L581.5 300.5" fill-rule="nonzero"/><clipPath id="id_0"><path d="M137.13 54.916668L581.45 54.916668L581.45 300.45L137.13 300.45L137.13 54.916668Z" clip-rule="nonzero"/></clipPath><path stroke="#000000" stroke-width="2.0" stroke-linecap="butt" stroke-opacity="0.0" clip-path="url(#id_0)" d="M137.0 94.0L137.0 69.0L489.0 69.0C490.10458 69.0 491.0 69.89543 491.0 71.0L491.0 92.0C491.0 93.10457 490.10458 94.0 489.0 94.0Z" fill-rule="nonzero"/><path fill="#4285f4" clip-path="url(#id_0)" d="M137.0 94.0L137.0 69.0L489.0 69.0C490.10458 69.0 491.0 69.89543 491.0 71.0L491.0 92.0C491.0 93.10457 490.10458 94.0 489.0 94.0Z" fill-rule="nonzero"/><path stroke="#000000" stroke-width="2.0" stroke-linecap="butt" stroke-opacity="0.0" clip-path="url(#id_0)" d="M137.0 171.0L137.0 146.0L197.0 146.0C198.10457 146.0 199.0 146.89543 199.0 148.0L199.0 169.0C199.0 170.10457 198.10457 171.0 197.0 171.0Z" fill-rule="nonzero"/><path fill="#4285f4" clip-path="url(#id_0)" d="M137.0 171.0L137.0 146.0L197.0 146.0C198.10457 146.0 199.0 146.89543 199.0 148.0L199.0 169.0C199.0 170.10457 198.10457 171.0 197.0 171.0Z" fill-rule="nonzero"/><path stroke="#000000" stroke-width="2.0" stroke-linecap="butt" stroke-opacity="0.0" clip-path="url(#id_0)" d="M137.0 210.0L137.0 185.0L261.0 185.0C262.10458 185.0 263.0 185.89543 263.0 187.0L263.0 208.0C263.0 209.10457 262.10458 210.0 261.0 210.0Z" fill-rule="nonzero"/><path fill="#4285f4" clip-path="url(#id_0)" d="M137.0 210.0L137.0 185.0L261.0 185.0C262.10458 185.0 263.0 185.89543 263.0 187.0L263.0 208.0C263.0 209.10457 262.10458 210.0 261.0 210.0Z" fill-rule="nonzero"/><path stroke="#000000" stroke-width="2.0" stroke-linecap="butt" stroke-opacity="0.0" clip-path="url(#id_0)" d="M137.0 249.0L137.0 224.0L153.0 224.0C154.10457 224.0 155.0 224.89543 155.0 226.0L155.0 247.0C155.0 248.10457 154.10457 249.0 153.0 249.0Z" fill-rule="nonzero"/><path fill="#4285f4" clip-path="url(#id_0)" d="M137.0 249.0L137.0 224.0L153.0 224.0C154.10457 224.0 155.0 224.89543 155.0 226.0L155.0 247.0C155.0 248.10457 154.10457 249.0 153.0 249.0Z" fill-rule="nonzero"/><path stroke="#000000" stroke-width="2.0" stroke-linecap="butt" stroke-opacity="0.0" clip-path="url(#id_0)" d="M137.0 287.0L137.0 262.0L157.0 262.0C158.10457 262.0 159.0 262.89542 159.0 264.0L159.0 285.0C159.0 286.10458 158.10457 287.0 157.0 287.0Z" fill-rule="nonzero"/><path fill="#4285f4" clip-path="url(#id_0)" d="M137.0 287.0L137.0 262.0L157.0 262.0C158.10457 262.0 159.0 262.89542 159.0 264.0L159.0 285.0C159.0 286.10458 158.10457 287.0 157.0 287.0Z" fill-rule="nonzero"/><path fill="#000000" d="M322.88376 348.5125L323.04 349.4344Q322.58688 349.52814 322.24313 349.52814Q321.665 349.52814 321.3525 349.35626Q321.04 349.16876 320.89938 348.8719Q320.77438 348.575 320.77438 347.6219L320.77438 344.04376L320.00876 344.04376L320.00876 343.23126L320.77438 343.23126L320.77438 341.6844L321.82126 341.0594L321.82126 343.23126L322.88376 343.23126L322.88376 344.04376L321.82126 344.04376L321.82126 347.6844Q321.82126 348.1375 321.86813 348.2625Q321.93063 348.3875 322.05563 348.46564Q322.18063 348.54376 322.415 348.54376Q322.6025 348.54376 322.88376 348.5125ZM323.58688 349.45L323.58688 340.85626L324.63376 340.85626L324.63376 343.9344Q325.36813 343.09064 326.49313 343.09064Q327.19626 343.09064 327.69626 343.3719Q328.21188 343.6375 328.43063 344.1219Q328.64938 344.59064 328.64938 345.5125L328.64938 349.45L327.6025 349.45L327.6025 345.5125Q327.6025 344.71564 327.25876 344.35626Q326.915 343.9969 326.29 343.9969Q325.82126 343.9969 325.39938 344.2469Q324.99313 344.48126 324.80563 344.90314Q324.63376 345.3094 324.63376 346.04376L324.63376 349.45L323.58688 349.45ZM330.19626 346.34064Q330.19626 344.60626 331.14938 343.77814Q331.94626 343.09064 333.1025 343.09064Q334.38376 343.09064 335.19626 343.9344Q336.02438 344.7625 336.02438 346.2469Q336.02438 347.45 335.665 348.1375Q335.30563 348.825 334.6025 349.21564Q333.915 349.59064 333.1025 349.59064Q331.80563 349.59064 330.99313 348.7625Q330.19626 347.91876 330.19626 346.34064ZM331.27438 346.34064Q331.27438 347.52814 331.79 348.1219Q332.32126 348.71564 333.1025 348.71564Q333.89938 348.71564 334.415 348.1219Q334.93063 347.52814 334.93063 346.3094Q334.93063 345.15314 334.39938 344.5594Q333.88376 343.96564 333.1025 343.96564Q332.32126 343.96564 331.79 344.5594Q331.27438 345.1375 331.27438 346.34064ZM341.665 349.45L341.665 348.52814Q340.93063 349.59064 339.68063 349.59064Q339.13376 349.59064 338.64938 349.3875Q338.18063 349.16876 337.94626 348.85626Q337.71188 348.52814 337.61813 348.0594Q337.55563 347.7625 337.55563 347.075L337.55563 343.23126L338.61813 343.23126L338.61813 346.6844Q338.61813 347.4969 338.68063 347.79376Q338.77438 348.2 339.08688 348.45Q339.415 348.6844 339.89938 348.6844Q340.36813 348.6844 340.77438 348.45Q341.19626 348.2 341.36813 347.77814Q341.55563 347.35626 341.55563 346.5594L341.55563 343.23126L342.6025 343.23126L342.6025 349.45L341.665 349.45ZM344.165 347.59064L345.19626 347.4344Q345.29 348.0594 345.68063 348.3875Q346.08688 348.71564 346.82126 348.71564Q347.54 348.71564 347.88376 348.4344Q348.24313 348.1375 348.24313 347.73126Q348.24313 347.3719 347.93063 347.16876Q347.71188 347.02814 346.8525 346.8094Q345.69626 346.5125 345.24313 346.3094Q344.80563 346.09064 344.57126 345.71564Q344.33688 345.34064 344.33688 344.8719Q344.33688 344.46564 344.52438 344.10626Q344.71188 343.7469 345.04 343.5125Q345.29 343.34064 345.71188 343.21564Q346.13376 343.09064 346.63376 343.09064Q347.3525 343.09064 347.89938 343.3094Q348.46188 343.5125 348.7275 343.8719Q348.99313 344.23126 349.08688 344.825L348.05563 344.96564Q347.99313 344.4969 347.64938 344.23126Q347.32126 343.95 346.69626 343.95Q345.9775 343.95 345.665 344.2Q345.3525 344.4344 345.3525 344.7625Q345.3525 344.96564 345.4775 345.1219Q345.61813 345.29376 345.88376 345.40314Q346.04 345.46564 346.82126 345.66876Q347.94626 345.98126 348.38376 346.16876Q348.82126 346.35626 349.07126 346.71564Q349.32126 347.075 349.32126 347.6219Q349.32126 348.15314 349.00876 348.6219Q348.71188 349.075 348.13376 349.34064Q347.55563 349.59064 346.82126 349.59064Q345.6025 349.59064 344.96188 349.09064Q344.33688 348.575 344.165 347.59064ZM355.64938 348.6844Q355.05563 349.1844 354.50876 349.3875Q353.9775 349.59064 353.3525 349.59064Q352.32126 349.59064 351.77438 349.09064Q351.2275 348.59064 351.2275 347.8094Q351.2275 347.35626 351.43063 346.98126Q351.63376 346.59064 351.9775 346.3719Q352.32126 346.1375 352.74313 346.02814Q353.04 345.9344 353.68063 345.85626Q354.94626 345.71564 355.55563 345.4969Q355.55563 345.27814 355.55563 345.23126Q355.55563 344.575 355.25876 344.3094Q354.8525 343.96564 354.05563 343.96564Q353.32126 343.96564 352.96188 344.23126Q352.6025 344.48126 352.43063 345.1375L351.39938 344.9969Q351.54 344.34064 351.86813 343.9344Q352.19626 343.52814 352.80563 343.3094Q353.415 343.09064 354.21188 343.09064Q355.00876 343.09064 355.50876 343.27814Q356.00876 343.46564 356.24313 343.7469Q356.4775 344.02814 356.57126 344.46564Q356.61813 344.73126 356.61813 345.4344L356.61813 346.84064Q356.61813 348.3094 356.68063 348.7Q356.75876 349.09064 356.96188 349.45L355.8525 349.45Q355.69626 349.1219 355.64938 348.6844ZM355.55563 346.325Q354.9775 346.5594 353.83688 346.73126Q353.18063 346.825 352.915 346.95Q352.64938 347.0594 352.49313 347.27814Q352.3525 347.4969 352.3525 347.77814Q352.3525 348.2 352.665 348.48126Q352.99313 348.7625 353.6025 348.7625Q354.21188 348.7625 354.68063 348.4969Q355.165 348.23126 355.38376 347.7625Q355.55563 347.40314 355.55563 346.71564L355.55563 346.325ZM358.58688 349.45L358.58688 343.23126L359.52438 343.23126L359.52438 344.10626Q360.21188 343.09064 361.50876 343.09064Q362.07126 343.09064 362.54 343.29376Q363.02438 343.4969 363.25876 343.825Q363.49313 344.15314 363.58688 344.59064Q363.63376 344.8875 363.63376 345.6219L363.63376 349.45L362.58688 349.45L362.58688 345.66876Q362.58688 345.0125 362.46188 344.7Q362.33688 344.3875 362.02438 344.2Q361.71188 343.9969 361.29 343.9969Q360.61813 343.9969 360.11813 344.4344Q359.63376 344.85626 359.63376 346.04376L359.63376 349.45L358.58688 349.45ZM369.61813 349.45L369.61813 348.66876Q369.02438 349.59064 367.88376 349.59064Q367.13376 349.59064 366.50876 349.1844Q365.88376 348.7625 365.54 348.02814Q365.19626 347.29376 365.19626 346.34064Q365.19626 345.41876 365.50876 344.65314Q365.82126 343.8875 366.44626 343.4969Q367.07126 343.09064 367.83688 343.09064Q368.39938 343.09064 368.83688 343.325Q369.27438 343.5594 369.55563 343.9344L369.55563 340.85626L370.6025 340.85626L370.6025 349.45L369.61813 349.45ZM366.29 346.34064Q366.29 347.54376 366.79 348.1375Q367.29 348.71564 367.9775 348.71564Q368.665 348.71564 369.14938 348.15314Q369.63376 347.59064 369.63376 346.4344Q369.63376 345.15314 369.13376 344.5594Q368.64938 343.96564 367.93063 343.96564Q367.2275 343.96564 366.75876 344.54376Q366.29 345.10626 366.29 346.34064ZM377.88376 348.5125L378.04 349.4344Q377.58688 349.52814 377.24313 349.52814Q376.665 349.52814 376.3525 349.35626Q376.04 349.16876 375.89938 348.8719Q375.77438 348.575 375.77438 347.6219L375.77438 344.04376L375.00876 344.04376L375.00876 343.23126L375.77438 343.23126L375.77438 341.6844L376.82126 341.0594L376.82126 343.23126L377.88376 343.23126L377.88376 344.04376L376.82126 344.04376L376.82126 347.6844Q376.82126 348.1375 376.86813 348.2625Q376.93063 348.3875 377.05563 348.46564Q377.18063 348.54376 377.415 348.54376Q377.6025 348.54376 377.88376 348.5125ZM378.19626 346.34064Q378.19626 344.60626 379.14938 343.77814Q379.94626 343.09064 381.1025 343.09064Q382.38376 343.09064 383.19626 343.9344Q384.02438 344.7625 384.02438 346.2469Q384.02438 347.45 383.665 348.1375Q383.30563 348.825 382.6025 349.21564Q381.915 349.59064 381.1025 349.59064Q379.80563 349.59064 378.99313 348.7625Q378.19626 347.91876 378.19626 346.34064ZM379.27438 346.34064Q379.27438 347.52814 379.79 348.1219Q380.32126 348.71564 381.1025 348.71564Q381.89938 348.71564 382.415 348.1219Q382.93063 347.52814 382.93063 346.3094Q382.93063 345.15314 382.39938 344.5594Q381.88376 343.96564 381.1025 343.96564Q380.32126 343.96564 379.79 344.5594Q379.27438 345.1375 379.27438 346.34064ZM385.58688 349.45L385.58688 343.23126L386.52438 343.23126L386.52438 344.10626Q387.21188 343.09064 388.50876 343.09064Q389.07126 343.09064 389.54 343.29376Q390.02438 343.4969 390.25876 343.825Q390.49313 344.15314 390.58688 344.59064Q390.63376 344.8875 390.63376 345.6219L390.63376 349.45L389.58688 349.45L389.58688 345.66876Q389.58688 345.0125 389.46188 344.7Q389.33688 344.3875 389.02438 344.2Q388.71188 343.9969 388.29 343.9969Q387.61813 343.9969 387.11813 344.4344Q386.63376 344.85626 386.63376 346.04376L386.63376 349.45L385.58688 349.45ZM392.165 347.59064L393.19626 347.4344Q393.29 348.0594 393.68063 348.3875Q394.08688 348.71564 394.82126 348.71564Q395.54 348.71564 395.88376 348.4344Q396.24313 348.1375 396.24313 347.73126Q396.24313 347.3719 395.93063 347.16876Q395.71188 347.02814 394.8525 346.8094Q393.69626 346.5125 393.24313 346.3094Q392.80563 346.09064 392.57126 345.71564Q392.33688 345.34064 392.33688 344.8719Q392.33688 344.46564 392.52438 344.10626Q392.71188 343.7469 393.04 343.5125Q393.29 343.34064 393.71188 343.21564Q394.13376 343.09064 394.63376 343.09064Q395.3525 343.09064 395.89938 343.3094Q396.46188 343.5125 396.7275 343.8719Q396.99313 344.23126 397.08688 344.825L396.05563 344.96564Q395.99313 344.4969 395.64938 344.23126Q395.32126 343.95 394.69626 343.95Q393.9775 343.95 393.665 344.2Q393.3525 344.4344 393.3525 344.7625Q393.3525 344.96564 393.4775 345.1219Q393.61813 345.29376 393.88376 345.40314Q394.04 345.46564 394.82126 345.66876Q395.94626 345.98126 396.38376 346.16876Q396.82126 346.35626 397.07126 346.71564Q397.32126 347.075 397.32126 347.6219Q397.32126 348.15314 397.00876 348.6219Q396.71188 349.075 396.13376 349.34064Q395.55563 349.59064 394.82126 349.59064Q393.6025 349.59064 392.96188 349.09064Q392.33688 348.575 392.165 347.59064Z" fill-rule="nonzero"/><path fill="#000000" d="M112.1925 82.001045L113.3175 82.29792Q112.95812 83.688545 112.03625 84.42292Q111.11437 85.157295 109.77062 85.157295Q108.38 85.157295 107.505 84.594795Q106.63 84.032295 106.17687 82.969795Q105.72375 81.89167 105.72375 80.657295Q105.72375 79.313545 106.23937 78.313545Q106.755 77.313545 107.6925 76.79792Q108.64562 76.282295 109.78625 76.282295Q111.0675 76.282295 111.9425 76.938545Q112.83312 77.594795 113.17687 78.782295L112.05187 79.04792Q111.755 78.11042 111.17687 77.688545Q110.61437 77.251045 109.755 77.251045Q108.77062 77.251045 108.09875 77.73542Q107.4425 78.20417 107.16125 79.001045Q106.89562 79.79792 106.89562 80.657295Q106.89562 81.751045 107.20812 82.563545Q107.53625 83.376045 108.20812 83.782295Q108.88 84.188545 109.67687 84.188545Q110.63 84.188545 111.28625 83.64167Q111.95812 83.094795 112.1925 82.001045ZM114.53625 81.907295Q114.53625 80.17292 115.48937 79.344795Q116.28625 78.657295 117.4425 78.657295Q118.72375 78.657295 119.53625 79.501045Q120.36437 80.32917 120.36437 81.813545Q120.36437 83.01667 120.005 83.70417Q119.64562 84.39167 118.9425 84.782295Q118.255 85.157295 117.4425 85.157295Q116.14562 85.157295 115.33312 84.32917Q114.53625 83.48542 114.53625 81.907295ZM115.61437 81.907295Q115.61437 83.094795 116.13 83.688545Q116.66125 84.282295 117.4425 84.282295Q118.23937 84.282295 118.755 83.688545Q119.27062 83.094795 119.27062 81.876045Q119.27062 80.719795 118.73937 80.126045Q118.22375 79.532295 117.4425 79.532295Q116.66125 79.532295 116.13 80.126045Q115.61437 80.70417 115.61437 81.907295ZM125.98937 84.251045Q125.39562 84.751045 124.84875 84.95417Q124.3175 85.157295 123.6925 85.157295Q122.66125 85.157295 122.11437 84.657295Q121.5675 84.157295 121.5675 83.376045Q121.5675 82.92292 121.77062 82.54792Q121.97375 82.157295 122.3175 81.938545Q122.66125 81.70417 123.08312 81.594795Q123.38 81.501045 124.02062 81.42292Q125.28625 81.282295 125.89562 81.063545Q125.89562 80.844795 125.89562 80.79792Q125.89562 80.14167 125.59875 79.876045Q125.1925 79.532295 124.39562 79.532295Q123.66125 79.532295 123.30187 79.79792Q122.9425 80.04792 122.77062 80.70417L121.73937 80.563545Q121.88 79.907295 122.20812 79.501045Q122.53625 79.094795 123.14562 78.876045Q123.755 78.657295 124.55187 78.657295Q125.34875 78.657295 125.84875 78.844795Q126.34875 79.032295 126.58312 79.313545Q126.8175 79.594795 126.91125 80.032295Q126.95812 80.29792 126.95812 81.001045L126.95812 82.407295Q126.95812 83.876045 127.02062 84.26667Q127.09875 84.657295 127.30187 85.01667L126.1925 85.01667Q126.03625 84.688545 125.98937 84.251045ZM125.89562 81.89167Q125.3175 82.126045 124.17687 82.29792Q123.52062 82.39167 123.255 82.51667Q122.98937 82.626045 122.83312 82.844795Q122.6925 83.063545 122.6925 83.344795Q122.6925 83.76667 123.005 84.04792Q123.33312 84.32917 123.9425 84.32917Q124.55187 84.32917 125.02062 84.063545Q125.505 83.79792 125.72375 83.32917Q125.89562 82.969795 125.89562 82.282295L125.89562 81.89167ZM128.89563 85.01667L128.89563 76.42292L129.95813 76.42292L129.95813 85.01667L128.89563 85.01667Z" fill-rule="nonzero"/><path fill="#000000" d="M32.192497 113.66771L33.317497 113.964584Q32.958122 115.35521 32.036247 116.089584Q31.114374 116.82396 29.770624 116.82396Q28.38 116.82396 27.505 116.26146Q26.63 115.69896 26.176874 114.63646Q25.72375 113.558334 25.72375 112.32396Q25.72375 110.98021 26.239374 109.98021Q26.755 108.98021 27.6925 108.464584Q28.645624 107.94896 29.78625 107.94896Q31.0675 107.94896 31.9425 108.60521Q32.833122 109.26146 33.176872 110.44896L32.051872 110.714584Q31.755 109.777084 31.176874 109.35521Q30.614374 108.91771 29.755 108.91771Q28.770624 108.91771 28.09875 109.402084Q27.4425 109.870834 27.16125 110.66771Q26.895624 111.464584 26.895624 112.32396Q26.895624 113.41771 27.208124 114.23021Q27.53625 115.04271 28.208124 115.44896Q28.88 115.85521 29.676874 115.85521Q30.63 115.85521 31.28625 115.308334Q31.958124 114.76146 32.192497 113.66771ZM34.911247 116.683334L34.911247 110.464584L35.864372 110.464584L35.864372 111.402084Q36.223747 110.745834 36.520622 110.54271Q36.833122 110.32396 37.208122 110.32396Q37.739372 110.32396 38.286247 110.652084L37.926872 111.63646Q37.536247 111.402084 37.161247 111.402084Q36.801872 111.402084 36.520622 111.620834Q36.254997 111.82396 36.145622 112.19896Q35.958122 112.76146 35.958122 113.41771L35.958122 116.683334L34.911247 116.683334ZM43.004997 116.683334L43.004997 115.76146Q42.270622 116.82396 41.020622 116.82396Q40.473747 116.82396 39.989372 116.620834Q39.520622 116.402084 39.286247 116.089584Q39.051872 115.76146 38.958122 115.29271Q38.895622 114.995834 38.895622 114.308334L38.895622 110.464584L39.958122 110.464584L39.958122 113.91771Q39.958122 114.73021 40.020622 115.027084Q40.114372 115.433334 40.426872 115.683334Q40.754997 115.91771 41.239372 115.91771Q41.708122 115.91771 42.114372 115.683334Q42.536247 115.433334 42.708122 115.01146Q42.895622 114.589584 42.895622 113.79271L42.895622 110.464584L43.942497 110.464584L43.942497 116.683334L43.004997 116.683334ZM49.958122 116.683334L49.958122 115.902084Q49.364372 116.82396 48.223747 116.82396Q47.473747 116.82396 46.848747 116.41771Q46.223747 115.995834 45.879997 115.26146Q45.536247 114.527084 45.536247 113.57396Q45.536247 112.652084 45.848747 111.88646Q46.161247 111.120834 46.786247 110.73021Q47.411247 110.32396 48.176872 110.32396Q48.739372 110.32396 49.176872 110.558334Q49.614372 110.79271 49.895622 111.16771L49.895622 108.089584L50.942497 108.089584L50.942497 116.683334L49.958122 116.683334ZM46.629997 113.57396Q46.629997 114.777084 47.129997 115.370834Q47.629997 115.94896 48.317497 115.94896Q49.004997 115.94896 49.489372 115.38646Q49.973747 114.82396 49.973747 113.66771Q49.973747 112.38646 49.473747 111.79271Q48.989372 111.19896 48.270622 111.19896Q47.567497 111.19896 47.098747 111.777084Q46.629997 112.339584 46.629997 113.57396ZM57.176872 114.683334L58.270622 114.808334Q58.020622 115.76146 57.317497 116.29271Q56.614372 116.82396 55.536247 116.82396Q54.176872 116.82396 53.364372 115.98021Q52.567497 115.13646 52.567497 113.620834Q52.567497 112.058334 53.379997 111.19896Q54.192497 110.32396 55.473747 110.32396Q56.723747 110.32396 57.504997 111.16771Q58.301872 112.01146 58.301872 113.558334Q58.301872 113.652084 58.301872 113.839584L53.661247 113.839584Q53.723747 114.870834 54.239372 115.41771Q54.754997 115.94896 55.536247 115.94896Q56.114372 115.94896 56.520622 115.652084Q56.942497 115.339584 57.176872 114.683334ZM53.723747 112.98021L57.192497 112.98021Q57.129997 112.183334 56.801872 111.79271Q56.286247 111.183334 55.489372 111.183334Q54.754997 111.183334 54.254997 111.66771Q53.770622 112.152084 53.723747 112.98021ZM62.536247 113.57396Q62.536247 111.839584 63.489372 111.01146Q64.28625 110.32396 65.4425 110.32396Q66.72375 110.32396 67.53625 111.16771Q68.36437 111.995834 68.36437 113.48021Q68.36437 114.683334 68.005 115.370834Q67.64562 116.058334 66.9425 116.44896Q66.255 116.82396 65.4425 116.82396Q64.14562 116.82396 63.333122 115.995834Q62.536247 115.152084 62.536247 113.57396ZM63.614372 113.57396Q63.614372 114.76146 64.13 115.35521Q64.66125 115.94896 65.4425 115.94896Q66.23937 115.94896 66.755 115.35521Q67.27062 114.76146 67.27062 113.54271Q67.27062 112.38646 66.73937 111.79271Q66.22375 111.19896 65.4425 111.19896Q64.66125 111.19896 64.13 111.79271Q63.614372 112.370834 63.614372 113.57396ZM69.92687 109.308334L69.92687 108.089584L70.98937 108.089584L70.98937 109.308334L69.92687 109.308334ZM69.92687 116.683334L69.92687 110.464584L70.98937 110.464584L70.98937 116.683334L69.92687 116.683334ZM72.89562 116.683334L72.89562 108.089584L73.95812 108.089584L73.95812 116.683334L72.89562 116.683334ZM76.1925 116.683334L76.1925 115.48021L77.39562 115.48021L77.39562 116.683334Q77.39562 117.339584 77.16125 117.745834Q76.92687 118.16771 76.42687 118.38646L76.13 117.933334Q76.45812 117.79271 76.61437 117.495834Q76.77062 117.214584 76.80187 116.683334L76.1925 116.683334ZM81.92687 109.308334L81.92687 108.089584L82.98937 108.089584L82.98937 109.308334L81.92687 109.308334ZM81.92687 116.683334L81.92687 110.464584L82.98937 110.464584L82.98937 116.683334L81.92687 116.683334ZM84.92687 116.683334L84.92687 110.464584L85.86437 110.464584L85.86437 111.339584Q86.55187 110.32396 87.84875 110.32396Q88.41125 110.32396 88.88 110.527084Q89.36437 110.73021 89.59875 111.058334Q89.83312 111.38646 89.92687 111.82396Q89.97375 112.120834 89.97375 112.85521L89.97375 116.683334L88.92687 116.683334L88.92687 112.902084Q88.92687 112.245834 88.80187 111.933334Q88.67687 111.620834 88.36437 111.433334Q88.05187 111.23021 87.63 111.23021Q86.95812 111.23021 86.45812 111.66771Q85.97375 112.089584 85.97375 113.277084L85.97375 116.683334L84.92687 116.683334ZM95.98937 114.402084L97.02062 114.54271Q96.84875 115.60521 96.14562 116.214584Q95.4425 116.82396 94.42687 116.82396Q93.14562 116.82396 92.36437 115.995834Q91.59875 115.152084 91.59875 113.589584Q91.59875 112.589584 91.92687 111.839584Q92.27062 111.07396 92.9425 110.69896Q93.63 110.32396 94.4425 110.32396Q95.4425 110.32396 96.08312 110.839584Q96.73937 111.339584 96.92687 112.29271L95.89562 112.44896Q95.755 111.82396 95.38 111.51146Q95.005 111.183334 94.47375 111.183334Q93.67687 111.183334 93.17687 111.76146Q92.67687 112.32396 92.67687 113.558334Q92.67687 114.82396 93.16125 115.38646Q93.64562 115.94896 94.41125 115.94896Q95.03625 115.94896 95.4425 115.57396Q95.86437 115.19896 95.98937 114.402084ZM97.89562 116.683334L97.89562 108.089584L98.95812 108.089584L98.95812 116.683334L97.89562 116.683334ZM105.005 116.683334L105.005 115.76146Q104.27062 116.82396 103.02062 116.82396Q102.47375 116.82396 101.98937 116.620834Q101.52062 116.402084 101.28625 116.089584Q101.05187 115.76146 100.95812 115.29271Q100.89562 114.995834 100.89562 114.308334L100.89562 110.464584L101.95812 110.464584L101.95812 113.91771Q101.95812 114.73021 102.02062 115.027084Q102.11437 115.433334 102.42687 115.683334Q102.755 115.91771 103.23937 115.91771Q103.70812 115.91771 104.11437 115.683334Q104.53625 115.433334 104.70812 115.01146Q104.89562 114.589584 104.89562 113.79271L104.89562 110.464584L105.9425 110.464584L105.9425 116.683334L105.005 116.683334ZM111.95812 116.683334L111.95812 115.902084Q111.36437 116.82396 110.22375 116.82396Q109.47375 116.82396 108.84875 116.41771Q108.22375 115.995834 107.88 115.26146Q107.53625 114.527084 107.53625 113.57396Q107.53625 112.652084 107.84875 111.88646Q108.16125 111.120834 108.78625 110.73021Q109.41125 110.32396 110.17687 110.32396Q110.73937 110.32396 111.17687 110.558334Q111.61437 110.79271 111.89562 111.16771L111.89562 108.089584L112.9425 108.089584L112.9425 116.683334L111.95812 116.683334ZM108.63 113.57396Q108.63 114.777084 109.13 115.370834Q109.63 115.94896 110.3175 115.94896Q111.005 115.94896 111.48937 115.38646Q111.97375 114.82396 111.97375 113.66771Q111.97375 112.38646 111.47375 111.79271Q110.98937 111.19896 110.27062 111.19896Q109.5675 111.19896 109.09875 111.777084Q108.63 112.339584 108.63 113.57396ZM114.92687 109.308334L114.92687 108.089584L115.98937 108.089584L115.98937 109.308334L114.92687 109.308334ZM114.92687 116.683334L114.92687 110.464584L115.98937 110.464584L115.98937 116.683334L114.92687 116.683334ZM117.92687 116.683334L117.92687 110.464584L118.86437 110.464584L118.86437 111.339584Q119.55187 110.32396 120.84875 110.32396Q121.41125 110.32396 121.88 110.527084Q122.36437 110.73021 122.59875 111.058334Q122.83312 111.38646 122.92687 111.82396Q122.97375 112.120834 122.97375 112.85521L122.97375 116.683334L121.92687 116.683334L121.92687 112.902084Q121.92687 112.245834 121.80187 111.933334Q121.67687 111.620834 121.36437 111.433334Q121.05187 111.23021 120.63 111.23021Q119.95812 111.23021 119.45812 111.66771Q118.97375 112.089584 118.97375 113.277084L118.97375 116.683334L117.92687 116.683334ZM124.72375 117.19896L125.755 117.35521Q125.8175 117.82396 126.11437 118.04271Q126.505 118.339584 127.17687 118.339584Q127.91125 118.339584 128.30188 118.04271Q128.70813 117.745834 128.84875 117.23021Q128.9425 116.902084 128.92688 115.870834Q128.23938 116.683334 127.20812 116.683334Q125.92687 116.683334 125.22375 115.76146Q124.52062 114.82396 124.52062 113.54271Q124.52062 112.652084 124.83312 111.902084Q125.16125 111.13646 125.77062 110.73021Q126.38 110.32396 127.20812 110.32396Q128.3175 110.32396 129.03625 111.214584L129.03625 110.464584L130.005 110.464584L130.005 115.839584Q130.005 117.29271 129.70813 117.902084Q129.41125 118.51146 128.77063 118.85521Q128.13 119.214584 127.1925 119.214584Q126.08312 119.214584 125.39562 118.714584Q124.70812 118.214584 124.72375 117.19896ZM125.59875 113.464584Q125.59875 114.683334 126.08312 115.245834Q126.5675 115.808334 127.30187 115.808334Q128.03625 115.808334 128.52063 115.245834Q129.02063 114.683334 129.02063 113.495834Q129.02063 112.35521 128.505 111.777084Q128.005 111.19896 127.28625 111.19896Q126.58312 111.19896 126.08312 111.777084Q125.59875 112.339584 125.59875 113.464584Z" fill-rule="nonzero"/><path fill="#000000" d="M107.05187 130.68333L107.05187 122.089584L108.20812 122.089584L112.72375 128.83958L112.72375 122.089584L113.8175 122.089584L113.8175 130.68333L112.64562 130.68333L108.13 123.933334L108.13 130.68333L107.05187 130.68333ZM120.08312 127.308334L120.08312 126.308334L123.70812 126.29271L123.70812 129.48021Q122.88 130.15208 121.98937 130.49583Q121.09875 130.82396 120.16125 130.82396Q118.89562 130.82396 117.84875 130.29271Q116.8175 129.74583 116.28625 128.73021Q115.77062 127.69896 115.77062 126.433334Q115.77062 125.16771 116.28625 124.089584Q116.8175 122.995834 117.80187 122.48021Q118.78625 121.94896 120.0675 121.94896Q121.005 121.94896 121.755 122.245834Q122.505 122.54271 122.92687 123.089584Q123.36437 123.620834 123.58312 124.495834L122.5675 124.777084Q122.36437 124.120834 122.0675 123.745834Q121.78625 123.370834 121.255 123.152084Q120.72375 122.91771 120.08312 122.91771Q119.30187 122.91771 118.72375 123.152084Q118.16125 123.38646 117.80187 123.777084Q117.45812 124.16771 117.27062 124.63646Q116.9425 125.433334 116.9425 126.35521Q116.9425 127.51146 117.33312 128.29271Q117.73937 129.05833 118.48937 129.43333Q119.23937 129.80833 120.09875 129.80833Q120.83312 129.80833 121.53625 129.52708Q122.23937 129.23021 122.59875 128.91771L122.59875 127.308334L120.08312 127.308334ZM125.005 130.68333L125.005 122.089584L126.14562 122.089584L126.14562 129.66771L130.38 129.66771L130.38 130.68333L125.005 130.68333Z" fill-rule="nonzero"/><path fill="#000000" d="M51.020626 162.35L51.020626 153.75626L52.739376 153.75626L54.770626 159.83438Q55.051876 160.69376 55.176876 161.11563Q55.3175 160.64688 55.63 159.74063L57.6925 153.75626L59.22375 153.75626L59.22375 162.35L58.13 162.35L58.13 155.1625L55.63 162.35L54.59875 162.35L52.114376 155.0375L52.114376 162.35L51.020626 162.35ZM59.53625 159.24063Q59.53625 157.50626 60.489376 156.67813Q61.28625 155.99063 62.4425 155.99063Q63.72375 155.99063 64.536255 156.83438Q65.36438 157.6625 65.36438 159.14688Q65.36438 160.35 65.005005 161.0375Q64.64563 161.725 63.9425 162.11563Q63.255 162.49063 62.4425 162.49063Q61.145626 162.49063 60.333126 161.6625Q59.53625 160.81876 59.53625 159.24063ZM60.614376 159.24063Q60.614376 160.42813 61.13 161.02188Q61.66125 161.61563 62.4425 161.61563Q63.239376 161.61563 63.755 161.02188Q64.27063 160.42813 64.27063 159.20938Q64.27063 158.05313 63.739376 157.45938Q63.22375 156.86563 62.4425 156.86563Q61.66125 156.86563 61.13 157.45938Q60.614376 158.0375 60.614376 159.24063ZM69.223755 161.4125L69.380005 162.33438Q68.92688 162.42813 68.58313 162.42813Q68.005005 162.42813 67.692505 162.25626Q67.380005 162.06876 67.23938 161.77188Q67.11438 161.475 67.11438 160.52188L67.11438 156.94376L66.348755 156.94376L66.348755 156.13126L67.11438 156.13126L67.11438 154.58438L68.161255 153.95938L68.161255 156.13126L69.223755 156.13126L69.223755 156.94376L68.161255 156.94376L68.161255 160.58438Q68.161255 161.0375 68.20813 161.1625Q68.27063 161.2875 68.39563 161.36563Q68.52063 161.44376 68.755005 161.44376Q68.942505 161.44376 69.223755 161.4125ZM69.536255 159.24063Q69.536255 157.50626 70.48938 156.67813Q71.286255 155.99063 72.442505 155.99063Q73.723755 155.99063 74.536255 156.83438Q75.36438 157.6625 75.36438 159.14688Q75.36438 160.35 75.005005 161.0375Q74.64563 161.725 73.942505 162.11563Q73.255005 162.49063 72.442505 162.49063Q71.14563 162.49063 70.33313 161.6625Q69.536255 160.81876 69.536255 159.24063ZM70.61438 159.24063Q70.61438 160.42813 71.130005 161.02188Q71.661255 161.61563 72.442505 161.61563Q73.23938 161.61563 73.755005 161.02188Q74.27063 160.42813 74.27063 159.20938Q74.27063 158.05313 73.73938 157.45938Q73.223755 156.86563 72.442505 156.86563Q71.661255 156.86563 71.130005 157.45938Q70.61438 158.0375 70.61438 159.24063ZM76.911255 162.35L76.911255 156.13126L77.86438 156.13126L77.86438 157.06876Q78.223755 156.4125 78.52063 156.20938Q78.83313 155.99063 79.20813 155.99063Q79.73938 155.99063 80.286255 156.31876L79.92688 157.30313Q79.536255 157.06876 79.161255 157.06876Q78.80188 157.06876 78.52063 157.2875Q78.255005 157.49063 78.14563 157.86563Q77.95813 158.42813 77.95813 159.08438L77.95813 162.35L76.911255 162.35ZM83.723755 162.86563L84.755005 163.02188Q84.817505 163.49063 85.11438 163.70938Q85.505005 164.00626 86.17688 164.00626Q86.911255 164.00626 87.30188 163.70938Q87.70813 163.4125 87.848755 162.89688Q87.942505 162.56876 87.92688 161.5375Q87.23938 162.35 86.20813 162.35Q84.92688 162.35 84.223755 161.42813Q83.52063 160.49063 83.52063 159.20938Q83.52063 158.31876 83.83313 157.56876Q84.161255 156.80313 84.77063 156.39688Q85.380005 155.99063 86.20813 155.99063Q87.317505 155.99063 88.036255 156.88126L88.036255 156.13126L89.005005 156.13126L89.005005 161.50626Q89.005005 162.95938 88.70813 163.56876Q88.411255 164.17813 87.77063 164.52188Q87.130005 164.88126 86.192505 164.88126Q85.08313 164.88126 84.39563 164.38126Q83.70813 163.88126 83.723755 162.86563ZM84.598755 159.13126Q84.598755 160.35 85.08313 160.9125Q85.567505 161.475 86.30188 161.475Q87.036255 161.475 87.52063 160.9125Q88.02063 160.35 88.02063 159.1625Q88.02063 158.02188 87.505005 157.44376Q87.005005 156.86563 86.286255 156.86563Q85.58313 156.86563 85.08313 157.44376Q84.598755 158.00626 84.598755 159.13126ZM94.98938 161.58438Q94.39563 162.08438 93.848755 162.2875Q93.317505 162.49063 92.692505 162.49063Q91.661255 162.49063 91.11438 161.99063Q90.567505 161.49063 90.567505 160.70938Q90.567505 160.25626 90.77063 159.88126Q90.973755 159.49063 91.317505 159.27188Q91.661255 159.0375 92.08313 158.92813Q92.380005 158.83438 93.02063 158.75626Q94.286255 158.61563 94.89563 158.39688Q94.89563 158.17813 94.89563 158.13126Q94.89563 157.475 94.598755 157.20938Q94.192505 156.86563 93.39563 156.86563Q92.661255 156.86563 92.30188 157.13126Q91.942505 157.38126 91.77063 158.0375L90.73938 157.89688Q90.880005 157.24063 91.20813 156.83438Q91.536255 156.42813 92.14563 156.20938Q92.755005 155.99063 93.55188 155.99063Q94.348755 155.99063 94.848755 156.17813Q95.348755 156.36563 95.58313 156.64688Q95.817505 156.92813 95.911255 157.36563Q95.95813 157.63126 95.95813 158.33438L95.95813 159.74063Q95.95813 161.20938 96.02063 161.6Q96.098755 161.99063 96.30188 162.35L95.192505 162.35Q95.036255 162.02188 94.98938 161.58438ZM94.89563 159.225Q94.317505 159.45938 93.17688 159.63126Q92.52063 159.725 92.255005 159.85Q91.98938 159.95938 91.83313 160.17813Q91.692505 160.39688 91.692505 160.67813Q91.692505 161.1 92.005005 161.38126Q92.33313 161.6625 92.942505 161.6625Q93.55188 161.6625 94.02063 161.39688Q94.505005 161.13126 94.723755 160.6625Q94.89563 160.30313 94.89563 159.61563L94.89563 159.225ZM97.505005 160.49063L98.536255 160.33438Q98.630005 160.95938 99.02063 161.2875Q99.42688 161.61563 100.161255 161.61563Q100.880005 161.61563 101.223755 161.33438Q101.58313 161.0375 101.58313 160.63126Q101.58313 160.27188 101.27063 160.06876Q101.05188 159.92813 100.192505 159.70938Q99.036255 159.4125 98.58313 159.20938Q98.14563 158.99063 97.911255 158.61563Q97.67688 158.24063 97.67688 157.77188Q97.67688 157.36563 97.86438 157.00626Q98.05188 156.64688 98.380005 156.4125Q98.630005 156.24063 99.05188 156.11563Q99.473755 155.99063 99.973755 155.99063Q100.692505 155.99063 101.23938 156.20938Q101.80188 156.4125 102.067505 156.77188Q102.33313 157.13126 102.42688 157.725L101.39563 157.86563Q101.33313 157.39688 100.98938 157.13126Q100.661255 156.85 100.036255 156.85Q99.317505 156.85 99.005005 157.1Q98.692505 157.33438 98.692505 157.6625Q98.692505 157.86563 98.817505 158.02188Q98.95813 158.19376 99.223755 158.30313Q99.380005 158.36563 100.161255 158.56876Q101.286255 158.88126 101.723755 159.06876Q102.161255 159.25626 102.411255 159.61563Q102.661255 159.975 102.661255 160.52188Q102.661255 161.05313 102.348755 161.52188Q102.05188 161.975 101.473755 162.24063Q100.89563 162.49063 100.161255 162.49063Q98.942505 162.49063 98.30188 161.99063Q97.67688 161.475 97.505005 160.49063ZM104.536255 159.24063Q104.536255 157.50626 105.48938 156.67813Q106.286255 155.99063 107.442505 155.99063Q108.723755 155.99063 109.536255 156.83438Q110.36438 157.6625 110.36438 159.14688Q110.36438 160.35 110.005005 161.0375Q109.64563 161.725 108.942505 162.11563Q108.255005 162.49063 107.442505 162.49063Q106.14563 162.49063 105.33313 161.6625Q104.536255 160.81876 104.536255 159.24063ZM105.61438 159.24063Q105.61438 160.42813 106.130005 161.02188Q106.661255 161.61563 107.442505 161.61563Q108.23938 161.61563 108.755005 161.02188Q109.27063 160.42813 109.27063 159.20938Q109.27063 158.05313 108.73938 157.45938Q108.223755 156.86563 107.442505 156.86563Q106.661255 156.86563 106.130005 157.45938Q105.61438 158.0375 105.61438 159.24063ZM111.89563 162.35L111.89563 153.75626L112.95813 153.75626L112.95813 162.35L111.89563 162.35ZM114.92688 154.975L114.92688 153.75626L115.98938 153.75626L115.98938 154.975L114.92688 154.975ZM114.92688 162.35L114.92688 156.13126L115.98938 156.13126L115.98938 162.35L114.92688 162.35ZM117.92688 162.35L117.92688 156.13126L118.86438 156.13126L118.86438 157.00626Q119.55188 155.99063 120.848755 155.99063Q121.411255 155.99063 121.880005 156.19376Q122.36438 156.39688 122.598755 156.725Q122.83313 157.05313 122.92688 157.49063Q122.973755 157.7875 122.973755 158.52188L122.973755 162.35L121.92688 162.35L121.92688 158.56876Q121.92688 157.9125 121.80188 157.6Q121.67688 157.2875 121.36438 157.1Q121.05188 156.89688 120.630005 156.89688Q119.95813 156.89688 119.45813 157.33438Q118.973755 157.75626 118.973755 158.94376L118.973755 162.35L117.92688 162.35ZM129.17688 160.35L130.27063 160.475Q130.02063 161.42813 129.3175 161.95938Q128.61438 162.49063 127.536255 162.49063Q126.17688 162.49063 125.36438 161.64688Q124.567505 160.80313 124.567505 159.2875Q124.567505 157.725 125.380005 156.86563Q126.192505 155.99063 127.473755 155.99063Q128.72375 155.99063 129.505 156.83438Q130.30188 157.67813 130.30188 159.225Q130.30188 159.31876 130.30188 159.50626L125.661255 159.50626Q125.723755 160.5375 126.23938 161.08438Q126.755005 161.61563 127.536255 161.61563Q128.11438 161.61563 128.52063 161.31876Q128.9425 161.00626 129.17688 160.35ZM125.723755 158.64688L129.1925 158.64688Q129.13 157.85 128.80188 157.45938Q128.28625 156.85 127.48938 156.85Q126.755005 156.85 126.255005 157.33438Q125.77063 157.81876 125.723755 158.64688Z" fill-rule="nonzero"/><path fill="#000000" d="M76.08312 197.64166L76.08312 196.64166L79.70812 196.62604L79.70812 199.81354Q78.88 200.48541 77.98937 200.82916Q77.09875 201.15729 76.16125 201.15729Q74.89562 201.15729 73.84875 200.62604Q72.8175 200.07916 72.28625 199.06354Q71.77062 198.03229 71.77062 196.76666Q71.77062 195.50104 72.28625 194.42291Q72.8175 193.32916 73.80187 192.81354Q74.78625 192.28229 76.0675 192.28229Q77.005 192.28229 77.755 192.57916Q78.505 192.87604 78.92687 193.42291Q79.36437 193.95416 79.58312 194.82916L78.5675 195.11041Q78.36437 194.45416 78.0675 194.07916Q77.78625 193.70416 77.255 193.48541Q76.72375 193.25104 76.08312 193.25104Q75.30187 193.25104 74.72375 193.48541Q74.16125 193.71979 73.80187 194.11041Q73.45812 194.50104 73.27062 194.96979Q72.9425 195.76666 72.9425 196.68854Q72.9425 197.84479 73.33312 198.62604Q73.73937 199.39166 74.48937 199.76666Q75.23937 200.14166 76.09875 200.14166Q76.83312 200.14166 77.53625 199.86041Q78.23937 199.56354 78.59875 199.25104L78.59875 197.64166L76.08312 197.64166ZM84.98937 200.25104Q84.39562 200.75104 83.84875 200.95416Q83.3175 201.15729 82.6925 201.15729Q81.66125 201.15729 81.11437 200.65729Q80.5675 200.15729 80.5675 199.37604Q80.5675 198.92291 80.77062 198.54791Q80.97375 198.15729 81.3175 197.93854Q81.66125 197.70416 82.08312 197.59479Q82.38 197.50104 83.02062 197.42291Q84.28625 197.28229 84.89562 197.06354Q84.89562 196.84479 84.89562 196.79791Q84.89562 196.14166 84.59875 195.87604Q84.1925 195.53229 83.39562 195.53229Q82.66125 195.53229 82.30187 195.79791Q81.9425 196.04791 81.77062 196.70416L80.73937 196.56354Q80.88 195.90729 81.20812 195.50104Q81.53625 195.09479 82.14562 194.87604Q82.755 194.65729 83.55187 194.65729Q84.34875 194.65729 84.84875 194.84479Q85.34875 195.03229 85.58312 195.31354Q85.8175 195.59479 85.91125 196.03229Q85.95812 196.29791 85.95812 197.00104L85.95812 198.40729Q85.95812 199.87604 86.02062 200.26666Q86.09875 200.65729 86.30187 201.01666L85.1925 201.01666Q85.03625 200.68854 84.98937 200.25104ZM84.89562 197.89166Q84.3175 198.12604 83.17687 198.29791Q82.52062 198.39166 82.255 198.51666Q81.98937 198.62604 81.83312 198.84479Q81.6925 199.06354 81.6925 199.34479Q81.6925 199.76666 82.005 200.04791Q82.33312 200.32916 82.9425 200.32916Q83.55187 200.32916 84.02062 200.06354Q84.505 199.79791 84.72375 199.32916Q84.89562 198.96979 84.89562 198.28229L84.89562 197.89166ZM87.505 199.15729L88.53625 199.00104Q88.63 199.62604 89.02062 199.95416Q89.42687 200.28229 90.16125 200.28229Q90.88 200.28229 91.22375 200.00104Q91.58312 199.70416 91.58312 199.29791Q91.58312 198.93854 91.27062 198.73541Q91.05187 198.59479 90.1925 198.37604Q89.03625 198.07916 88.58312 197.87604Q88.14562 197.65729 87.91125 197.28229Q87.67687 196.90729 87.67687 196.43854Q87.67687 196.03229 87.86437 195.67291Q88.05187 195.31354 88.38 195.07916Q88.63 194.90729 89.05187 194.78229Q89.47375 194.65729 89.97375 194.65729Q90.6925 194.65729 91.23937 194.87604Q91.80187 195.07916 92.0675 195.43854Q92.33312 195.79791 92.42687 196.39166L91.39562 196.53229Q91.33312 196.06354 90.98937 195.79791Q90.66125 195.51666 90.03625 195.51666Q89.3175 195.51666 89.005 195.76666Q88.6925 196.00104 88.6925 196.32916Q88.6925 196.53229 88.8175 196.68854Q88.95812 196.86041 89.22375 196.96979Q89.38 197.03229 90.16125 197.23541Q91.28625 197.54791 91.72375 197.73541Q92.16125 197.92291 92.41125 198.28229Q92.66125 198.64166 92.66125 199.18854Q92.66125 199.71979 92.34875 200.18854Q92.05187 200.64166 91.47375 200.90729Q90.89562 201.15729 90.16125 201.15729Q88.9425 201.15729 88.30187 200.65729Q87.67687 200.14166 87.505 199.15729ZM94.13 201.15729L96.61437 192.28229L97.45812 192.28229L94.97375 201.15729L94.13 201.15729ZM101.95812 201.01666L101.95812 200.23541Q101.36437 201.15729 100.22375 201.15729Q99.47375 201.15729 98.84875 200.75104Q98.22375 200.32916 97.88 199.59479Q97.53625 198.86041 97.53625 197.90729Q97.53625 196.98541 97.84875 196.21979Q98.16125 195.45416 98.78625 195.06354Q99.41125 194.65729 100.17687 194.65729Q100.73937 194.65729 101.17687 194.89166Q101.61437 195.12604 101.89562 195.50104L101.89562 192.42291L102.9425 192.42291L102.9425 201.01666L101.95812 201.01666ZM98.63 197.90729Q98.63 199.11041 99.13 199.70416Q99.63 200.28229 100.3175 200.28229Q101.005 200.28229 101.48937 199.71979Q101.97375 199.15729 101.97375 198.00104Q101.97375 196.71979 101.47375 196.12604Q100.98937 195.53229 100.27062 195.53229Q99.5675 195.53229 99.09875 196.11041Q98.63 196.67291 98.63 197.90729ZM104.92687 193.64166L104.92687 192.42291L105.98937 192.42291L105.98937 193.64166L104.92687 193.64166ZM104.92687 201.01666L104.92687 194.79791L105.98937 194.79791L105.98937 201.01666L104.92687 201.01666ZM112.17687 199.01666L113.27062 199.14166Q113.02062 200.09479 112.3175 200.62604Q111.61437 201.15729 110.53625 201.15729Q109.17687 201.15729 108.36437 200.31354Q107.5675 199.46979 107.5675 197.95416Q107.5675 196.39166 108.38 195.53229Q109.1925 194.65729 110.47375 194.65729Q111.72375 194.65729 112.505 195.50104Q113.30187 196.34479 113.30187 197.89166Q113.30187 197.98541 113.30187 198.17291L108.66125 198.17291Q108.72375 199.20416 109.23937 199.75104Q109.755 200.28229 110.53625 200.28229Q111.11437 200.28229 111.52062 199.98541Q111.9425 199.67291 112.17687 199.01666ZM108.72375 197.31354L112.1925 197.31354Q112.13 196.51666 111.80187 196.12604Q111.28625 195.51666 110.48937 195.51666Q109.755 195.51666 109.255 196.00104Q108.77062 196.48541 108.72375 197.31354ZM114.505 199.15729L115.53625 199.00104Q115.63 199.62604 116.02062 199.95416Q116.42687 200.28229 117.16125 200.28229Q117.88 200.28229 118.22375 200.00104Q118.58312 199.70416 118.58312 199.29791Q118.58312 198.93854 118.27062 198.73541Q118.05187 198.59479 117.1925 198.37604Q116.03625 198.07916 115.58312 197.87604Q115.14562 197.65729 114.91125 197.28229Q114.67687 196.90729 114.67687 196.43854Q114.67687 196.03229 114.86437 195.67291Q115.05187 195.31354 115.38 195.07916Q115.63 194.90729 116.05187 194.78229Q116.47375 194.65729 116.97375 194.65729Q117.6925 194.65729 118.23937 194.87604Q118.80187 195.07916 119.0675 195.43854Q119.33312 195.79791 119.42687 196.39166L118.39562 196.53229Q118.33312 196.06354 117.98937 195.79791Q117.66125 195.51666 117.03625 195.51666Q116.3175 195.51666 116.005 195.76666Q115.6925 196.00104 115.6925 196.32916Q115.6925 196.53229 115.8175 196.68854Q115.95812 196.86041 116.22375 196.96979Q116.38 197.03229 117.16125 197.23541Q118.28625 197.54791 118.72375 197.73541Q119.16125 197.92291 119.41125 198.28229Q119.66125 198.64166 119.66125 199.18854Q119.66125 199.71979 119.34875 200.18854Q119.05187 200.64166 118.47375 200.90729Q117.89562 201.15729 117.16125 201.15729Q115.9425 201.15729 115.30187 200.65729Q114.67687 200.14166 114.505 199.15729ZM126.17687 199.01666L127.27062 199.14166Q127.02062 200.09479 126.3175 200.62604Q125.61437 201.15729 124.53625 201.15729Q123.17687 201.15729 122.36437 200.31354Q121.5675 199.46979 121.5675 197.95416Q121.5675 196.39166 122.38 195.53229Q123.1925 194.65729 124.47375 194.65729Q125.72375 194.65729 126.505 195.50104Q127.30187 196.34479 127.30187 197.89166Q127.30187 197.98541 127.30187 198.17291L122.66125 198.17291Q122.72375 199.20416 123.23937 199.75104Q123.755 200.28229 124.53625 200.28229Q125.11437 200.28229 125.52062 199.98541Q125.9425 199.67291 126.17687 199.01666ZM122.72375 197.31354L126.1925 197.31354Q126.13 196.51666 125.80187 196.12604Q125.28625 195.51666 124.48937 195.51666Q123.755 195.51666 123.255 196.00104Q122.77062 196.48541 122.72375 197.31354ZM128.89563 201.01666L128.89563 192.42291L129.95813 192.42291L129.95813 201.01666L128.89563 201.01666Z" fill-rule="nonzero"/><path fill="#000000" d="M92.11437 239.68333L92.11437 231.08958L97.91125 231.08958L97.91125 232.10521L93.255 232.10521L93.255 234.76146L97.28625 234.76146L97.28625 235.77708L93.255 235.77708L93.255 239.68333L92.11437 239.68333ZM103.005 239.68333L103.005 238.76146Q102.27062 239.82396 101.02062 239.82396Q100.47375 239.82396 99.98937 239.62083Q99.52062 239.40208 99.28625 239.08958Q99.05187 238.76146 98.95812 238.29271Q98.89562 237.99583 98.89562 237.30833L98.89562 233.46458L99.95812 233.46458L99.95812 236.91771Q99.95812 237.73021 100.02062 238.02708Q100.11437 238.43333 100.42687 238.68333Q100.755 238.91771 101.23937 238.91771Q101.70812 238.91771 102.11437 238.68333Q102.53625 238.43333 102.70812 238.01146Q102.89562 237.58958 102.89562 236.79271L102.89562 233.46458L103.9425 233.46458L103.9425 239.68333L103.005 239.68333ZM110.17687 237.68333L111.27062 237.80833Q111.02062 238.76146 110.3175 239.29271Q109.61437 239.82396 108.53625 239.82396Q107.17687 239.82396 106.36437 238.98021Q105.5675 238.13646 105.5675 236.62083Q105.5675 235.05833 106.38 234.19896Q107.1925 233.32396 108.47375 233.32396Q109.72375 233.32396 110.505 234.16771Q111.30187 235.01146 111.30187 236.55833Q111.30187 236.65208 111.30187 236.83958L106.66125 236.83958Q106.72375 237.87083 107.23937 238.41771Q107.755 238.94896 108.53625 238.94896Q109.11437 238.94896 109.52062 238.65208Q109.9425 238.33958 110.17687 237.68333ZM106.72375 235.98021L110.1925 235.98021Q110.13 235.18333 109.80187 234.79271Q109.28625 234.18333 108.48937 234.18333Q107.755 234.18333 107.255 234.66771Q106.77062 235.15208 106.72375 235.98021ZM112.89562 239.68333L112.89562 231.08958L113.95812 231.08958L113.95812 239.68333L112.89562 239.68333ZM118.53625 236.57396Q118.53625 234.83958 119.48937 234.01146Q120.28625 233.32396 121.4425 233.32396Q122.72375 233.32396 123.53625 234.16771Q124.36437 234.99583 124.36437 236.48021Q124.36437 237.68333 124.005 238.37083Q123.64562 239.05833 122.9425 239.44896Q122.255 239.82396 121.4425 239.82396Q120.14562 239.82396 119.33312 238.99583Q118.53625 238.15208 118.53625 236.57396ZM119.61437 236.57396Q119.61437 237.76146 120.13 238.35521Q120.66125 238.94896 121.4425 238.94896Q122.23937 238.94896 122.755 238.35521Q123.27062 237.76146 123.27062 236.54271Q123.27062 235.38646 122.73937 234.79271Q122.22375 234.19896 121.4425 234.19896Q120.66125 234.19896 120.13 234.79271Q119.61437 235.37083 119.61437 236.57396ZM125.92687 232.30833L125.92687 231.08958L126.98937 231.08958L126.98937 232.30833L125.92687 232.30833ZM125.92687 239.68333L125.92687 233.46458L126.98937 233.46458L126.98937 239.68333L125.92687 239.68333ZM128.89563 239.68333L128.89563 231.08958L129.95813 231.08958L129.95813 239.68333L128.89563 239.68333Z" fill-rule="nonzero"/><path fill="#000000" d="M108.005 278.35L108.005 269.75626L109.14562 269.75626L109.14562 277.33438L113.38 277.33438L113.38 278.35L108.005 278.35ZM115.05187 278.35L115.05187 269.75626L118.30187 269.75626Q119.14562 269.75626 119.59875 269.83438Q120.23937 269.94376 120.66125 270.24063Q121.09875 270.5375 121.34875 271.06876Q121.61437 271.6 121.61437 272.24063Q121.61437 273.33438 120.91125 274.1Q120.22375 274.85 118.39562 274.85L116.1925 274.85L116.1925 278.35L115.05187 278.35ZM116.1925 273.85L118.41125 273.85Q119.52062 273.85 119.97375 273.44376Q120.4425 273.02188 120.4425 272.27188Q120.4425 271.74063 120.16125 271.36563Q119.89562 270.975 119.45812 270.85Q119.16125 270.77188 118.39562 270.77188L116.1925 270.77188L116.1925 273.85ZM127.08312 274.975L127.08312 273.975L130.70813 273.95938L130.70813 277.14688Q129.88 277.81876 128.98938 278.1625Q128.09875 278.49063 127.16125 278.49063Q125.89562 278.49063 124.84875 277.95938Q123.8175 277.4125 123.28625 276.39688Q122.77062 275.36563 122.77062 274.1Q122.77062 272.83438 123.28625 271.75626Q123.8175 270.6625 124.80187 270.14688Q125.78625 269.61563 127.0675 269.61563Q128.005 269.61563 128.755 269.9125Q129.505 270.20938 129.92688 270.75626Q130.36438 271.2875 130.58313 272.1625L129.5675 272.44376Q129.36438 271.7875 129.0675 271.4125Q128.78625 271.0375 128.255 270.81876Q127.72375 270.58438 127.08312 270.58438Q126.30187 270.58438 125.72375 270.81876Q125.16125 271.05313 124.80187 271.44376Q124.45812 271.83438 124.27062 272.30313Q123.9425 273.1 123.9425 274.02188Q123.9425 275.17813 124.33312 275.95938Q124.73937 276.725 125.48937 277.1Q126.23937 277.475 127.09875 277.475Q127.83312 277.475 128.53625 277.19376Q129.23938 276.89688 129.59875 276.58438L129.59875 274.975L127.08312 274.975Z" fill-rule="nonzero"/><path fill="#000000" d="M134.13 313.21564Q134.13 311.6844 134.4425 310.7625Q134.755 309.825 135.36438 309.325Q135.98938 308.825 136.92688 308.825Q137.61438 308.825 138.13 309.10626Q138.66125 309.3875 139.005 309.91876Q139.34875 310.4344 139.53625 311.1844Q139.72375 311.9344 139.72375 313.21564Q139.72375 314.73126 139.41125 315.65314Q139.11438 316.575 138.48938 317.09064Q137.88 317.59064 136.92688 317.59064Q135.6925 317.59064 134.97375 316.7Q134.13 315.6375 134.13 313.21564ZM135.20813 313.21564Q135.20813 315.325 135.70813 316.02814Q136.20813 316.73126 136.92688 316.73126Q137.66125 316.73126 138.14563 316.02814Q138.64563 315.325 138.64563 313.21564Q138.64563 311.09064 138.14563 310.40314Q137.66125 309.7 136.91125 309.7Q136.1925 309.7 135.755 310.3094Q135.20813 311.09064 135.20813 313.21564Z" fill-rule="nonzero"/><path fill="#000000" d="M238.21 315.2L239.31938 315.10626Q239.44438 315.91876 239.88188 316.325Q240.335 316.73126 240.97563 316.73126Q241.72563 316.73126 242.25688 316.15314Q242.78813 315.575 242.78813 314.6375Q242.78813 313.73126 242.2725 313.21564Q241.7725 312.6844 240.94438 312.6844Q240.44438 312.6844 240.0225 312.91876Q239.61626 313.15314 239.38188 313.5125L238.3975 313.3875L239.22563 308.98126L243.50688 308.98126L243.50688 309.98126L240.06938 309.98126L239.61626 312.29376Q240.38188 311.7469 241.22563 311.7469Q242.35063 311.7469 243.11626 312.52814Q243.8975 313.3094 243.8975 314.54376Q243.8975 315.7 243.22563 316.5594Q242.3975 317.59064 240.97563 317.59064Q239.80376 317.59064 239.05376 316.9344Q238.31938 316.27814 238.21 315.2ZM245.21 313.21564Q245.21 311.6844 245.5225 310.7625Q245.835 309.825 246.44438 309.325Q247.06938 308.825 248.00688 308.825Q248.69438 308.825 249.21 309.10626Q249.74126 309.3875 250.085 309.91876Q250.42876 310.4344 250.61626 311.1844Q250.80376 311.9344 250.80376 313.21564Q250.80376 314.73126 250.49126 315.65314Q250.19438 316.575 249.56938 317.09064Q248.96 317.59064 248.00688 317.59064Q246.7725 317.59064 246.05376 316.7Q245.21 315.6375 245.21 313.21564ZM246.28813 313.21564Q246.28813 315.325 246.78813 316.02814Q247.28813 316.73126 248.00688 316.73126Q248.74126 316.73126 249.22563 316.02814Q249.72563 315.325 249.72563 313.21564Q249.72563 311.09064 249.22563 310.40314Q248.74126 309.7 247.99126 309.7Q247.2725 309.7 246.835 310.3094Q246.28813 311.09064 246.28813 313.21564ZM252.21 313.21564Q252.21 311.6844 252.5225 310.7625Q252.835 309.825 253.44438 309.325Q254.06938 308.825 255.00688 308.825Q255.69438 308.825 256.21002 309.10626Q256.74127 309.3875 257.08502 309.91876Q257.42877 310.4344 257.61627 311.1844Q257.80377 311.9344 257.80377 313.21564Q257.80377 314.73126 257.49127 315.65314Q257.1944 316.575 256.5694 317.09064Q255.96 317.59064 255.00688 317.59064Q253.7725 317.59064 253.05376 316.7Q252.21 315.6375 252.21 313.21564ZM253.28813 313.21564Q253.28813 315.325 253.78813 316.02814Q254.28813 316.73126 255.00688 316.73126Q255.74126 316.73126 256.22565 316.02814Q256.72565 315.325 256.72565 313.21564Q256.72565 311.09064 256.22565 310.40314Q255.74126 309.7 254.99126 309.7Q254.2725 309.7 253.835 310.3094Q253.28813 311.09064 253.28813 313.21564Z" fill-rule="nonzero"/><path fill="#000000" d="M349.75876 317.45L348.71188 317.45L348.71188 310.73126Q348.32126 311.09064 347.69626 311.46564Q347.08688 311.825 346.6025 311.9969L346.6025 310.98126Q347.4775 310.5594 348.13376 309.98126Q348.80563 309.3875 349.08688 308.825L349.75876 308.825L349.75876 317.45ZM352.79 313.21564Q352.79 311.6844 353.1025 310.7625Q353.415 309.825 354.02438 309.325Q354.64938 308.825 355.58688 308.825Q356.27438 308.825 356.79 309.10626Q357.32126 309.3875 357.665 309.91876Q358.00876 310.4344 358.19626 311.1844Q358.38376 311.9344 358.38376 313.21564Q358.38376 314.73126 358.07126 315.65314Q357.77438 316.575 357.14938 317.09064Q356.54 317.59064 355.58688 317.59064Q354.3525 317.59064 353.63376 316.7Q352.79 315.6375 352.79 313.21564ZM353.86813 313.21564Q353.86813 315.325 354.36813 316.02814Q354.86813 316.73126 355.58688 316.73126Q356.32126 316.73126 356.80563 316.02814Q357.30563 315.325 357.30563 313.21564Q357.30563 311.09064 356.80563 310.40314Q356.32126 309.7 355.57126 309.7Q354.8525 309.7 354.415 310.3094Q353.86813 311.09064 353.86813 313.21564ZM359.79 313.21564Q359.79 311.6844 360.1025 310.7625Q360.415 309.825 361.02438 309.325Q361.64938 308.825 362.58688 308.825Q363.27438 308.825 363.79 309.10626Q364.32126 309.3875 364.665 309.91876Q365.00876 310.4344 365.19626 311.1844Q365.38376 311.9344 365.38376 313.21564Q365.38376 314.73126 365.07126 315.65314Q364.77438 316.575 364.14938 317.09064Q363.54 317.59064 362.58688 317.59064Q361.3525 317.59064 360.63376 316.7Q359.79 315.6375 359.79 313.21564ZM360.86813 313.21564Q360.86813 315.325 361.36813 316.02814Q361.86813 316.73126 362.58688 316.73126Q363.32126 316.73126 363.80563 316.02814Q364.30563 315.325 364.30563 313.21564Q364.30563 311.09064 363.80563 310.40314Q363.32126 309.7 362.57126 309.7Q361.8525 309.7 361.415 310.3094Q360.86813 311.09064 360.86813 313.21564ZM366.79 313.21564Q366.79 311.6844 367.1025 310.7625Q367.415 309.825 368.02438 309.325Q368.64938 308.825 369.58688 308.825Q370.27438 308.825 370.79 309.10626Q371.32126 309.3875 371.665 309.91876Q372.00876 310.4344 372.19626 311.1844Q372.38376 311.9344 372.38376 313.21564Q372.38376 314.73126 372.07126 315.65314Q371.77438 316.575 371.14938 317.09064Q370.54 317.59064 369.58688 317.59064Q368.3525 317.59064 367.63376 316.7Q366.79 315.6375 366.79 313.21564ZM367.86813 313.21564Q367.86813 315.325 368.36813 316.02814Q368.86813 316.73126 369.58688 316.73126Q370.32126 316.73126 370.80563 316.02814Q371.30563 315.325 371.30563 313.21564Q371.30563 311.09064 370.80563 310.40314Q370.32126 309.7 369.57126 309.7Q368.8525 309.7 368.415 310.3094Q367.86813 311.09064 367.86813 313.21564Z" fill-rule="nonzero"/><path fill="#000000" d="M460.83875 317.45L459.79187 317.45L459.79187 310.73126Q459.40125 311.09064 458.77625 311.46564Q458.16687 311.825 457.6825 311.9969L457.6825 310.98126Q458.5575 310.5594 459.21375 309.98126Q459.88562 309.3875 460.16687 308.825L460.83875 308.825L460.83875 317.45ZM463.87 315.2L464.97937 315.10626Q465.10437 315.91876 465.54187 316.325Q465.995 316.73126 466.63562 316.73126Q467.38562 316.73126 467.91687 316.15314Q468.44812 315.575 468.44812 314.6375Q468.44812 313.73126 467.9325 313.21564Q467.4325 312.6844 466.60437 312.6844Q466.10437 312.6844 465.6825 312.91876Q465.27625 313.15314 465.04187 313.5125L464.0575 313.3875L464.88562 308.98126L469.16687 308.98126L469.16687 309.98126L465.72937 309.98126L465.27625 312.29376Q466.04187 311.7469 466.88562 311.7469Q468.01062 311.7469 468.77625 312.52814Q469.5575 313.3094 469.5575 314.54376Q469.5575 315.7 468.88562 316.5594Q468.0575 317.59064 466.63562 317.59064Q465.46375 317.59064 464.71375 316.9344Q463.97937 316.27814 463.87 315.2ZM470.87 313.21564Q470.87 311.6844 471.1825 310.7625Q471.495 309.825 472.10437 309.325Q472.72937 308.825 473.66687 308.825Q474.35437 308.825 474.87 309.10626Q475.40125 309.3875 475.745 309.91876Q476.08875 310.4344 476.27625 311.1844Q476.46375 311.9344 476.46375 313.21564Q476.46375 314.73126 476.15125 315.65314Q475.85437 316.575 475.22937 317.09064Q474.62 317.59064 473.66687 317.59064Q472.4325 317.59064 471.71375 316.7Q470.87 315.6375 470.87 313.21564ZM471.94812 313.21564Q471.94812 315.325 472.44812 316.02814Q472.94812 316.73126 473.66687 316.73126Q474.40125 316.73126 474.88562 316.02814Q475.38562 315.325 475.38562 313.21564Q475.38562 311.09064 474.88562 310.40314Q474.40125 309.7 473.65125 309.7Q472.9325 309.7 472.495 310.3094Q471.94812 311.09064 471.94812 313.21564ZM477.87 313.21564Q477.87 311.6844 478.1825 310.7625Q478.495 309.825 479.10437 309.325Q479.72937 308.825 480.66687 308.825Q481.35437 308.825 481.87 309.10626Q482.40125 309.3875 482.745 309.91876Q483.08875 310.4344 483.27625 311.1844Q483.46375 311.9344 483.46375 313.21564Q483.46375 314.73126 483.15125 315.65314Q482.85437 316.575 482.22937 317.09064Q481.62 317.59064 480.66687 317.59064Q479.4325 317.59064 478.71375 316.7Q477.87 315.6375 477.87 313.21564ZM478.94812 313.21564Q478.94812 315.325 479.44812 316.02814Q479.94812 316.73126 480.66687 316.73126Q481.40125 316.73126 481.88562 316.02814Q482.38562 315.325 482.38562 313.21564Q482.38562 311.09064 481.88562 310.40314Q481.40125 309.7 480.65125 309.7Q479.9325 309.7 479.495 310.3094Q478.94812 311.09064 478.94812 313.21564Z" fill-rule="nonzero"/><path fill="#000000" d="M573.4969 316.4344L573.4969 317.45L567.8094 317.45Q567.8094 317.075 567.9344 316.71564Q568.15314 316.1375 568.6219 315.575Q569.10626 315.0125 570.0125 314.27814Q571.41876 313.1219 571.90314 312.45Q572.40314 311.77814 572.40314 311.1844Q572.40314 310.5594 571.95 310.1375Q571.4969 309.7 570.77814 309.7Q570.0125 309.7 569.5594 310.15314Q569.10626 310.60626 569.09064 311.41876L568.0125 311.3094Q568.1219 310.09064 568.84064 309.46564Q569.575 308.825 570.8094 308.825Q572.04376 308.825 572.7625 309.5125Q573.48126 310.2 573.48126 311.21564Q573.48126 311.73126 573.2625 312.23126Q573.0594 312.71564 572.5594 313.27814Q572.075 313.825 570.95 314.77814Q569.9969 315.575 569.71564 315.8719Q569.45 316.15314 569.27814 316.4344L573.4969 316.4344ZM574.95 313.21564Q574.95 311.6844 575.2625 310.7625Q575.575 309.825 576.1844 309.325Q576.8094 308.825 577.7469 308.825Q578.4344 308.825 578.95 309.10626Q579.48126 309.3875 579.825 309.91876Q580.16876 310.4344 580.35626 311.1844Q580.54376 311.9344 580.54376 313.21564Q580.54376 314.73126 580.23126 315.65314Q579.9344 316.575 579.3094 317.09064Q578.7 317.59064 577.7469 317.59064Q576.5125 317.59064 575.79376 316.7Q574.95 315.6375 574.95 313.21564ZM576.02814 313.21564Q576.02814 315.325 576.52814 316.02814Q577.02814 316.73126 577.7469 316.73126Q578.48126 316.73126 578.96564 316.02814Q579.46564 315.325 579.46564 313.21564Q579.46564 311.09064 578.96564 310.40314Q578.48126 309.7 577.73126 309.7Q577.0125 309.7 576.575 310.3094Q576.02814 311.09064 576.02814 313.21564ZM581.95 313.21564Q581.95 311.6844 582.2625 310.7625Q582.575 309.825 583.1844 309.325Q583.8094 308.825 584.7469 308.825Q585.4344 308.825 585.95 309.10626Q586.48126 309.3875 586.825 309.91876Q587.16876 310.4344 587.35626 311.1844Q587.54376 311.9344 587.54376 313.21564Q587.54376 314.73126 587.23126 315.65314Q586.9344 316.575 586.3094 317.09064Q585.7 317.59064 584.7469 317.59064Q583.5125 317.59064 582.79376 316.7Q581.95 315.6375 581.95 313.21564ZM583.02814 313.21564Q583.02814 315.325 583.52814 316.02814Q584.02814 316.73126 584.7469 316.73126Q585.48126 316.73126 585.96564 316.02814Q586.46564 315.325 586.46564 313.21564Q586.46564 311.09064 585.96564 310.40314Q585.48126 309.7 584.73126 309.7Q584.0125 309.7 583.575 310.3094Q583.02814 311.09064 583.02814 313.21564ZM588.95 313.21564Q588.95 311.6844 589.2625 310.7625Q589.575 309.825 590.1844 309.325Q590.8094 308.825 591.7469 308.825Q592.4344 308.825 592.95 309.10626Q593.48126 309.3875 593.825 309.91876Q594.16876 310.4344 594.35626 311.1844Q594.54376 311.9344 594.54376 313.21564Q594.54376 314.73126 594.23126 315.65314Q593.9344 316.575 593.3094 317.09064Q592.7 317.59064 591.7469 317.59064Q590.5125 317.59064 589.79376 316.7Q588.95 315.6375 588.95 313.21564ZM590.02814 313.21564Q590.02814 315.325 590.52814 316.02814Q591.02814 316.73126 591.7469 316.73126Q592.48126 316.73126 592.96564 316.02814Q593.46564 315.325 593.46564 313.21564Q593.46564 311.09064 592.96564 310.40314Q592.48126 309.7 591.73126 309.7Q591.0125 309.7 590.575 310.3094Q590.02814 311.09064 590.02814 313.21564Z" fill-rule="nonzero"/><path fill="#000000" d="M20.190624 37.55L20.190624 23.2375L29.846874 23.2375L29.846874 24.925L22.08125 24.925L22.08125 29.3625L28.8 29.3625L28.8 31.05L22.08125 31.05L22.08125 37.55L20.190624 37.55ZM38.659374 37.55L38.659374 36.01875Q37.45625 37.784374 35.378124 37.784374Q34.45625 37.784374 33.659374 37.440624Q32.8625 37.08125 32.471874 36.55Q32.096874 36.01875 31.940624 35.2375Q31.83125 34.721874 31.83125 33.596874L31.83125 27.175L33.58125 27.175L33.58125 32.925Q33.58125 34.3 33.690624 34.784374Q33.8625 35.471874 34.39375 35.878124Q34.940624 36.26875 35.721874 36.26875Q36.51875 36.26875 37.20625 35.8625Q37.909374 35.45625 38.190624 34.76875Q38.4875 34.065624 38.4875 32.7375L38.4875 27.175L40.2375 27.175L40.2375 37.55L38.659374 37.55ZM48.971874 34.20625L50.784374 34.440624Q50.3625 36.01875 49.190624 36.909374Q48.034374 37.784374 46.221874 37.784374Q43.95625 37.784374 42.6125 36.39375Q41.284374 34.9875 41.284374 32.45625Q41.284374 29.83125 42.628124 28.39375Q43.971874 26.940624 46.128124 26.940624Q48.20625 26.940624 49.51875 28.3625Q50.846874 29.76875 50.846874 32.346874Q50.846874 32.503124 50.83125 32.815624L43.096874 32.815624Q43.190624 34.51875 44.065624 35.425Q44.940624 36.33125 46.2375 36.33125Q47.20625 36.33125 47.878124 35.83125Q48.565624 35.315624 48.971874 34.20625ZM43.190624 31.3625L48.9875 31.3625Q48.878124 30.065624 48.33125 29.409374Q47.4875 28.39375 46.14375 28.39375Q44.940624 28.39375 44.1125 29.20625Q43.284374 30.003124 43.190624 31.3625ZM52.83125 37.55L52.83125 23.2375L54.58125 23.2375L54.58125 37.55L52.83125 37.55ZM62.846874 37.55L62.846874 27.175L64.425 27.175L64.425 28.753124Q65.03438 27.64375 65.55 27.3Q66.06563 26.940624 66.675 26.940624Q67.56563 26.940624 68.4875 27.503124L67.87813 29.14375Q67.2375 28.753124 66.59688 28.753124Q66.01875 28.753124 65.55 29.1125Q65.09688 29.45625 64.89375 30.065624Q64.6125 31.003124 64.6125 32.1125L64.6125 37.55L62.846874 37.55ZM76.97188 34.20625L78.78438 34.440624Q78.3625 36.01875 77.19063 36.909374Q76.03438 37.784374 74.22188 37.784374Q71.95625 37.784374 70.6125 36.39375Q69.28438 34.9875 69.28438 32.45625Q69.28438 29.83125 70.62813 28.39375Q71.97188 26.940624 74.12813 26.940624Q76.20625 26.940624 77.51875 28.3625Q78.84688 29.76875 78.84688 32.346874Q78.84688 32.503124 78.83125 32.815624L71.09688 32.815624Q71.19063 34.51875 72.06563 35.425Q72.94063 36.33125 74.2375 36.33125Q75.20625 36.33125 75.87813 35.83125Q76.56563 35.315624 76.97188 34.20625ZM71.19063 31.3625L76.9875 31.3625Q76.87813 30.065624 76.33125 29.409374Q75.4875 28.39375 74.14375 28.39375Q72.94063 28.39375 72.1125 29.20625Q71.28438 30.003124 71.19063 31.3625ZM80.15938 34.45625L81.90938 34.175Q82.05 35.221874 82.72188 35.784374Q83.39375 36.33125 84.59688 36.33125Q85.8 36.33125 86.37813 35.846874Q86.97188 35.346874 86.97188 34.690624Q86.97188 34.096874 86.45625 33.753124Q86.09688 33.51875 84.65938 33.159374Q82.72188 32.659374 81.97188 32.315624Q81.2375 31.95625 80.84688 31.33125Q80.45625 30.690624 80.45625 29.925Q80.45625 29.2375 80.76875 28.64375Q81.09688 28.05 81.64375 27.659374Q82.05 27.3625 82.75313 27.159374Q83.47188 26.940624 84.28438 26.940624Q85.50313 26.940624 86.425 27.3Q87.34688 27.64375 87.78438 28.253124Q88.22188 28.846874 88.39375 29.846874L86.675 30.08125Q86.55 29.284374 85.9875 28.846874Q85.425 28.39375 84.40938 28.39375Q83.19063 28.39375 82.675 28.8Q82.15938 29.190624 82.15938 29.721874Q82.15938 30.065624 82.37813 30.346874Q82.58125 30.628124 83.05 30.815624Q83.31563 30.909374 84.59688 31.253124Q86.47188 31.753124 87.20625 32.08125Q87.94063 32.39375 88.3625 33.003124Q88.78438 33.596874 88.78438 34.503124Q88.78438 35.378124 88.26875 36.159374Q87.75313 36.940624 86.78438 37.3625Q85.81563 37.784374 84.59688 37.784374Q82.58125 37.784374 81.51875 36.940624Q80.45625 36.096874 80.15938 34.45625ZM97.97188 34.20625L99.78438 34.440624Q99.3625 36.01875 98.19063 36.909374Q97.03438 37.784374 95.22188 37.784374Q92.95625 37.784374 91.6125 36.39375Q90.28438 34.9875 90.28438 32.45625Q90.28438 29.83125 91.62813 28.39375Q92.97188 26.940624 95.12813 26.940624Q97.20625 26.940624 98.51875 28.3625Q99.84688 29.76875 99.84688 32.346874Q99.84688 32.503124 99.83125 32.815624L92.09688 32.815624Q92.19063 34.51875 93.06563 35.425Q93.94063 36.33125 95.2375 36.33125Q96.20625 36.33125 96.87813 35.83125Q97.56563 35.315624 97.97188 34.20625ZM92.19063 31.3625L97.9875 31.3625Q97.87813 30.065624 97.33125 29.409374Q96.4875 28.39375 95.14375 28.39375Q93.94063 28.39375 93.1125 29.20625Q92.28438 30.003124 92.19063 31.3625ZM101.84688 37.55L101.84688 27.175L103.425 27.175L103.425 28.753124Q104.03438 27.64375 104.55 27.3Q105.06563 26.940624 105.675 26.940624Q106.56563 26.940624 107.4875 27.503124L106.87813 29.14375Q106.2375 28.753124 105.59688 28.753124Q105.01875 28.753124 104.55 29.1125Q104.09688 29.45625 103.89375 30.065624Q103.6125 31.003124 103.6125 32.1125L103.6125 37.55L101.84688 37.55ZM111.75313 37.55L107.8 27.175L109.65938 27.175L111.89375 33.39375Q112.25313 34.39375 112.55 35.471874Q112.78438 34.659374 113.20625 33.503124L115.50313 27.175L117.31563 27.175L113.39375 37.55L111.75313 37.55ZM124.97188 34.20625L126.78438 34.440624Q126.3625 36.01875 125.19063 36.909374Q124.03438 37.784374 122.22188 37.784374Q119.95625 37.784374 118.6125 36.39375Q117.28438 34.9875 117.28438 32.45625Q117.28438 29.83125 118.62813 28.39375Q119.97188 26.940624 122.12813 26.940624Q124.20625 26.940624 125.51875 28.3625Q126.84688 29.76875 126.84688 32.346874Q126.84688 32.503124 126.83125 32.815624L119.09688 32.815624Q119.19063 34.51875 120.06563 35.425Q120.94063 36.33125 122.2375 36.33125Q123.20625 36.33125 123.87813 35.83125Q124.56563 35.315624 124.97188 34.20625ZM119.19063 31.3625L124.9875 31.3625Q124.87813 30.065624 124.33125 29.409374Q123.4875 28.39375 122.14375 28.39375Q120.94063 28.39375 120.1125 29.20625Q119.28438 30.003124 119.19063 31.3625ZM128.15938 34.45625L129.90938 34.175Q130.05 35.221874 130.72188 35.784374Q131.39375 36.33125 132.59688 36.33125Q133.8 36.33125 134.37813 35.846874Q134.97188 35.346874 134.97188 34.690624Q134.97188 34.096874 134.45625 33.753124Q134.09688 33.51875 132.65938 33.159374Q130.72188 32.659374 129.97188 32.315624Q129.2375 31.95625 128.84688 31.33125Q128.45625 30.690624 128.45625 29.925Q128.45625 29.2375 128.76875 28.64375Q129.09688 28.05 129.64375 27.659374Q130.05 27.3625 130.75313 27.159374Q131.47188 26.940624 132.28438 26.940624Q133.50313 26.940624 134.425 27.3Q135.34688 27.64375 135.78438 28.253124Q136.22188 28.846874 136.39375 29.846874L134.675 30.08125Q134.55 29.284374 133.9875 28.846874Q133.425 28.39375 132.40938 28.39375Q131.19063 28.39375 130.675 28.8Q130.15938 29.190624 130.15938 29.721874Q130.15938 30.065624 130.37813 30.346874Q130.58125 30.628124 131.05 30.815624Q131.31563 30.909374 132.59688 31.253124Q134.47188 31.753124 135.20625 32.08125Q135.94063 32.39375 136.3625 33.003124Q136.78438 33.596874 136.78438 34.503124Q136.78438 35.378124 136.26875 36.159374Q135.75313 36.940624 134.78438 37.3625Q133.81563 37.784374 132.59688 37.784374Q130.58125 37.784374 129.51875 36.940624Q128.45625 36.096874 128.15938 34.45625Z" fill-rule="nonzero"/></svg>