<svg version="1.1" viewBox="0.0 0.0 600.0 371.0" fill="none" stroke="none" stroke-linecap="square" stroke-miterlimit="10" width="600" height="371" xmlns:xlink="http://www.w3.org/1999/xlink" xmlns="http://www.w3.org/2000/svg"><path fill="#ffffff" d="M0 0L600.0 0L600.0 371.0L0 371.0L0 0Z" fill-rule="nonzero"/><path stroke="#cccccc" stroke-width="1.0" stroke-linecap="butt" d="M45.5 88.5L45.5 332.5" fill-rule="nonzero"/><path stroke="#cccccc" stroke-width="1.0" stroke-linecap="butt" d="M127.5 88.5L127.5 332.5" fill-rule="nonzero"/><path stroke="#cccccc" stroke-width="1.0" stroke-linecap="butt" d="M210.5 88.5L210.5 332.5" fill-rule="nonzero"/><path stroke="#cccccc" stroke-width="1.0" stroke-linecap="butt" d="M292.5 88.5L292.5 332.5" fill-rule="nonzero"/><path stroke="#cccccc" stroke-width="1.0" stroke-linecap="butt" d="M375.5 88.5L375.5 332.5" fill-rule="nonzero"/><path stroke="#cccccc" stroke-width="1.0" stroke-linecap="butt" d="M457.5 88.5L457.5 332.5" fill-rule="nonzero"/><path stroke="#cccccc" stroke-width="1.0" stroke-linecap="butt" d="M540.5 88.5L540.5 332.5" fill-rule="nonzero"/><path stroke="#333333" stroke-width="1.0" stroke-linecap="butt" d="M45.5 332.5L581.5 332.5" fill-rule="nonzero"/><path stroke="#cccccc" stroke-width="1.0" stroke-linecap="butt" d="M45.5 251.5L581.5 251.5" fill-rule="nonzero"/><path stroke="#cccccc" stroke-width="1.0" stroke-linecap="butt" d="M45.5 169.5L581.5 169.5" fill-rule="nonzero"/><path stroke="#cccccc" stroke-width="1.0" stroke-linecap="butt" d="M45.5 88.5L581.5 88.5" fill-rule="nonzero"/><clipPath id="id_0"><path d="M45.55 88.28333L581.45 88.28333L581.45 332.45L45.55 332.45L45.55 88.28333Z" clip-rule="nonzero"/></clipPath><path stroke="#4285f4" stroke-width="2.0" stroke-linecap="butt" clip-path="url(#id_0)" d="M251.66539 252.28195L292.88846 221.76111L334.11154 175.77638L375.33463 183.91528L416.55768 171.70694L457.78076 179.84584L499.00385 124.50139L540.2269 123.280556L581.45 100.49167" fill-rule="nonzero"/><path stroke="#ea4335" stroke-width="2.0" stroke-linecap="butt" clip-path="url(#id_0)" d="M210.4423 250.65416L251.66539 234.78334L292.88846 232.74861L334.11154 239.25972L375.33463 241.29445L416.55768 269.78055L457.78076 239.25972L499.00385 234.78334L540.2269 238.0389L581.45 251.06111" fill-rule="nonzero"/><path fill="#000000" fill-opacity="0.0" clip-path="url(#id_0)" d="M254.66539 252.28195C254.66539 253.9388 253.32224 255.28195 251.66539 255.28195C250.00853 255.28195 248.66539 253.9388 248.66539 252.28195C248.66539 250.62509 250.00853 249.28195 251.66539 249.28195C253.32224 249.28195 254.66539 250.62509 254.66539 252.28195Z" fill-rule="nonzero"/><path fill="#000000" fill-opacity="0.0" clip-path="url(#id_0)" d="M295.88846 221.76111C295.88846 223.41797 294.54532 224.76111 292.88846 224.76111C291.2316 224.76111 289.88846 223.41797 289.88846 221.76111C289.88846 220.10426 291.2316 218.76111 292.88846 218.76111C294.54532 218.76111 295.88846 220.10426 295.88846 221.76111Z" fill-rule="nonzero"/><path fill="#000000" fill-opacity="0.0" clip-path="url(#id_0)" d="M337.11154 175.77638C337.11154 177.43324 335.7684 178.77638 334.11154 178.77638C332.45468 178.77638 331.11154 177.43324 331.11154 175.77638C331.11154 174.11954 332.45468 172.77638 334.11154 172.77638C335.7684 172.77638 337.11154 174.11954 337.11154 175.77638Z" fill-rule="nonzero"/><path fill="#000000" fill-opacity="0.0" clip-path="url(#id_0)" d="M378.33463 183.91528C378.33463 185.57213 376.99146 186.91528 375.33463 186.91528C373.67776 186.91528 372.33463 185.57213 372.33463 183.91528C372.33463 182.25842 373.67776 180.91528 375.33463 180.91528C376.99146 180.91528 378.33463 182.25842 378.33463 183.91528Z" fill-rule="nonzero"/><path fill="#000000" fill-opacity="0.0" clip-path="url(#id_0)" d="M419.55768 171.70694C419.55768 173.3638 418.21454 174.70694 416.55768 174.70694C414.90085 174.70694 413.55768 173.3638 413.55768 171.70694C413.55768 170.0501 414.90085 168.70694 416.55768 168.70694C418.21454 168.70694 419.55768 170.0501 419.55768 171.70694Z" fill-rule="nonzero"/><path fill="#000000" fill-opacity="0.0" clip-path="url(#id_0)" d="M460.78076 179.84584C460.78076 181.50269 459.43762 182.84584 457.78076 182.84584C456.1239 182.84584 454.78076 181.50269 454.78076 179.84584C454.78076 178.18898 456.1239 176.84584 457.78076 176.84584C459.43762 176.84584 460.78076 178.18898 460.78076 179.84584Z" fill-rule="nonzero"/><path fill="#000000" fill-opacity="0.0" clip-path="url(#id_0)" d="M502.00385 124.50139C502.00385 126.15824 500.6607 127.50139 499.00385 127.50139C497.347 127.50139 496.00385 126.15824 496.00385 124.50139C496.00385 122.844536 497.347 121.50139 499.00385 121.50139C500.6607 121.50139 502.00385 122.844536 502.00385 124.50139Z" fill-rule="nonzero"/><path fill="#000000" fill-opacity="0.0" clip-path="url(#id_0)" d="M543.2269 123.280556C543.2269 124.93741 541.8838 126.280556 540.2269 126.280556C538.57007 126.280556 537.2269 124.93741 537.2269 123.280556C537.2269 121.6237 538.57007 120.280556 540.2269 120.280556C541.8838 120.280556 543.2269 121.6237 543.2269 123.280556Z" fill-rule="nonzero"/><path fill="#000000" fill-opacity="0.0" clip-path="url(#id_0)" d="M584.45 100.49167C584.45 102.14852 583.1069 103.49167 581.45 103.49167C579.79315 103.49167 578.45 102.14852 578.45 100.49167C578.45 98.834816 579.79315 97.49167 581.45 97.49167C583.1069 97.49167 584.45 98.834816 584.45 100.49167Z" fill-rule="nonzero"/><path fill="#000000" fill-opacity="0.0" clip-path="url(#id_0)" d="M213.4423 250.65416C213.4423 252.31102 212.09917 253.65416 210.4423 253.65416C208.78545 253.65416 207.4423 252.31102 207.4423 250.65416C207.4423 248.99731 208.78545 247.65416 210.4423 247.65416C212.09917 247.65416 213.4423 248.99731 213.4423 250.65416Z" fill-rule="nonzero"/><path fill="#000000" fill-opacity="0.0" clip-path="url(#id_0)" d="M254.66539 234.78334C254.66539 236.44019 253.32224 237.78334 251.66539 237.78334C250.00853 237.78334 248.66539 236.44019 248.66539 234.78334C248.66539 233.12648 250.00853 231.78334 251.66539 231.78334C253.32224 231.78334 254.66539 233.12648 254.66539 234.78334Z" fill-rule="nonzero"/><path fill="#000000" fill-opacity="0.0" clip-path="url(#id_0)" d="M295.88846 232.74861C295.88846 234.40547 294.54532 235.74861 292.88846 235.74861C291.2316 235.74861 289.88846 234.40547 289.88846 232.74861C289.88846 231.09175 291.2316 229.74861 292.88846 229.74861C294.54532 229.74861 295.88846 231.09175 295.88846 232.74861Z" fill-rule="nonzero"/><path fill="#000000" fill-opacity="0.0" clip-path="url(#id_0)" d="M337.11154 239.25972C337.11154 240.91658 335.7684 242.25972 334.11154 242.25972C332.45468 242.25972 331.11154 240.91658 331.11154 239.25972C331.11154 237.60287 332.45468 236.25972 334.11154 236.25972C335.7684 236.25972 337.11154 237.60287 337.11154 239.25972Z" fill-rule="nonzero"/><path fill="#000000" fill-opacity="0.0" clip-path="url(#id_0)" d="M378.33463 241.29445C378.33463 242.9513 376.99146 244.29445 375.33463 244.29445C373.67776 244.29445 372.33463 242.9513 372.33463 241.29445C372.33463 239.63759 373.67776 238.29445 375.33463 238.29445C376.99146 238.29445 378.33463 239.63759 378.33463 241.29445Z" fill-rule="nonzero"/><path fill="#000000" fill-opacity="0.0" clip-path="url(#id_0)" d="M419.55768 269.78055C419.55768 271.4374 418.21454 272.78055 416.55768 272.78055C414.90085 272.78055 413.55768 271.4374 413.55768 269.78055C413.55768 268.1237 414.90085 266.78055 416.55768 266.78055C418.21454 266.78055 419.55768 268.1237 419.55768 269.78055Z" fill-rule="nonzero"/><path fill="#000000" fill-opacity="0.0" clip-path="url(#id_0)" d="M460.78076 239.25972C460.78076 240.91658 459.43762 242.25972 457.78076 242.25972C456.1239 242.25972 454.78076 240.91658 454.78076 239.25972C454.78076 237.60287 456.1239 236.25972 457.78076 236.25972C459.43762 236.25972 460.78076 237.60287 460.78076 239.25972Z" fill-rule="nonzero"/><path fill="#000000" fill-opacity="0.0" clip-path="url(#id_0)" d="M502.00385 234.78334C502.00385 236.44019 500.6607 237.78334 499.00385 237.78334C497.347 237.78334 496.00385 236.44019 496.00385 234.78334C496.00385 233.12648 497.347 231.78334 499.00385 231.78334C500.6607 231.78334 502.00385 233.12648 502.00385 234.78334Z" fill-rule="nonzero"/><path fill="#000000" fill-opacity="0.0" clip-path="url(#id_0)" d="M543.2269 238.0389C543.2269 239.69574 541.8838 241.0389 540.2269 241.0389C538.57007 241.0389 537.2269 239.69574 537.2269 238.0389C537.2269 236.38203 538.57007 235.0389 540.2269 235.0389C541.8838 235.0389 543.2269 236.38203 543.2269 238.0389Z" fill-rule="nonzero"/><path fill="#000000" fill-opacity="0.0" clip-path="url(#id_0)" d="M584.45 251.06111C584.45 252.71797 583.1069 254.06111 581.45 254.06111C579.79315 254.06111 578.45 252.71797 578.45 251.06111C578.45 249.40425 579.79315 248.06111 581.45 248.06111C583.1069 248.06111 584.45 249.40425 584.45 251.06111Z" fill-rule="nonzero"/><path fill="#000000" d="M33.05 332.21564Q33.05 330.6844 33.3625 329.7625Q33.675 328.825 34.284374 328.325Q34.909374 327.825 35.846874 327.825Q36.534374 327.825 37.05 328.10626Q37.58125 328.3875 37.925 328.91876Q38.26875 329.4344 38.45625 330.1844Q38.64375 330.9344 38.64375 332.21564Q38.64375 333.73126 38.33125 334.65314Q38.034374 335.575 37.409374 336.09064Q36.8 336.59064 35.846874 336.59064Q34.6125 336.59064 33.89375 335.7Q33.05 334.6375 33.05 332.21564ZM34.128124 332.21564Q34.128124 334.325 34.628124 335.02814Q35.128124 335.73126 35.846874 335.73126Q36.58125 335.73126 37.065624 335.02814Q37.565624 334.325 37.565624 332.21564Q37.565624 330.09064 37.065624 329.40314Q36.58125 328.7 35.83125 328.7Q35.1125 328.7 34.675 329.3094Q34.128124 330.09064 34.128124 332.21564Z" fill-rule="nonzero"/><path fill="#000000" d="M38.596874 254.04549L38.596874 255.06111L32.909374 255.06111Q32.909374 254.68611 33.034374 254.32674Q33.253124 253.74861 33.721874 253.18611Q34.20625 252.62361 35.1125 251.88924Q36.51875 250.73299 37.003124 250.06111Q37.503124 249.38924 37.503124 248.79549Q37.503124 248.17049 37.05 247.74861Q36.596874 247.31111 35.878124 247.31111Q35.1125 247.31111 34.659374 247.76424Q34.20625 248.21736 34.190624 249.02986L33.1125 248.92049Q33.221874 247.70174 33.940624 247.07674Q34.675 246.43611 35.909374 246.43611Q37.14375 246.43611 37.8625 247.12361Q38.58125 247.81111 38.58125 248.82674Q38.58125 249.34236 38.3625 249.84236Q38.159374 250.32674 37.659374 250.88924Q37.175 251.43611 36.05 252.38924Q35.096874 253.18611 34.815624 253.48299Q34.55 253.76424 34.378124 254.04549L38.596874 254.04549Z" fill-rule="nonzero"/><path fill="#000000" d="M36.425 173.67223L36.425 171.60973L32.70625 171.60973L32.70625 170.64098L36.628124 165.07848L37.4875 165.07848L37.4875 170.64098L38.64375 170.64098L38.64375 171.60973L37.4875 171.60973L37.4875 173.67223L36.425 173.67223ZM36.425 170.64098L36.425 166.7816L33.7375 170.64098L36.425 170.64098Z" fill-rule="nonzero"/><path fill="#000000" d="M38.51875 85.79896L37.471874 85.87708Q37.33125 85.25208 37.08125 84.97083Q36.64375 84.51771 36.01875 84.51771Q35.51875 84.51771 35.128124 84.79896Q34.64375 85.17396 34.346874 85.87708Q34.065624 86.56458 34.05 87.84583Q34.425 87.26771 34.971874 86.98646Q35.534374 86.70521 36.14375 86.70521Q37.190624 86.70521 37.925 87.48646Q38.675 88.26771 38.675 89.48646Q38.675 90.29896 38.315624 91.00208Q37.971874 91.68958 37.3625 92.06458Q36.753124 92.42396 35.9875 92.42396Q34.659374 92.42396 33.83125 91.45521Q33.003124 90.48646 33.003124 88.26771Q33.003124 85.76771 33.925 84.64271Q34.721874 83.65833 36.08125 83.65833Q37.096874 83.65833 37.7375 84.23646Q38.39375 84.79896 38.51875 85.79896ZM34.221874 89.50208Q34.221874 90.04896 34.440624 90.54896Q34.675 91.03333 35.08125 91.29896Q35.503124 91.56458 35.971874 91.56458Q36.628124 91.56458 37.1125 91.03333Q37.596874 90.48646 37.596874 89.56458Q37.596874 88.67396 37.1125 88.15833Q36.64375 87.64271 35.925 87.64271Q35.20625 87.64271 34.70625 88.15833Q34.221874 88.67396 34.221874 89.50208Z" fill-rule="nonzero"/><path fill="#000000" d="M37.596874 348.4344L37.596874 349.45L31.909374 349.45Q31.909374 349.075 32.034374 348.71564Q32.253124 348.1375 32.721874 347.575Q33.20625 347.0125 34.1125 346.27814Q35.51875 345.1219 36.003124 344.45Q36.503124 343.77814 36.503124 343.1844Q36.503124 342.5594 36.05 342.1375Q35.596874 341.7 34.878124 341.7Q34.1125 341.7 33.659374 342.15314Q33.20625 342.60626 33.190624 343.41876L32.1125 343.3094Q32.221874 342.09064 32.940624 341.46564Q33.675 340.825 34.909374 340.825Q36.14375 340.825 36.8625 341.5125Q37.58125 342.2 37.58125 343.21564Q37.58125 343.73126 37.3625 344.23126Q37.159374 344.71564 36.659374 345.27814Q36.175 345.825 35.05 346.77814Q34.096874 347.575 33.815624 347.8719Q33.55 348.15314 33.378124 348.4344L37.596874 348.4344ZM39.05 345.21564Q39.05 343.6844 39.3625 342.7625Q39.675 341.825 40.284374 341.325Q40.909374 340.825 41.846874 340.825Q42.534374 340.825 43.05 341.10626Q43.58125 341.3875 43.925 341.91876Q44.26875 342.4344 44.45625 343.1844Q44.64375 343.9344 44.64375 345.21564Q44.64375 346.73126 44.33125 347.65314Q44.034374 348.575 43.409374 349.09064Q42.8 349.59064 41.846874 349.59064Q40.6125 349.59064 39.89375 348.7Q39.05 347.6375 39.05 345.21564ZM40.128124 345.21564Q40.128124 347.325 40.628124 348.02814Q41.128124 348.73126 41.846874 348.73126Q42.58125 348.73126 43.065624 348.02814Q43.565624 347.325 43.565624 345.21564Q43.565624 343.09064 43.065624 342.40314Q42.58125 341.7 41.83125 341.7Q41.1125 341.7 40.675 342.3094Q40.128124 343.09064 40.128124 345.21564ZM50.01875 349.45L48.971874 349.45L48.971874 342.73126Q48.58125 343.09064 47.95625 343.46564Q47.346874 343.825 46.8625 343.9969L46.8625 342.98126Q47.7375 342.5594 48.39375 341.98126Q49.065624 341.3875 49.346874 340.825L50.01875 340.825L50.01875 349.45ZM53.05 345.21564Q53.05 343.6844 53.3625 342.7625Q53.675 341.825 54.284374 341.325Q54.909374 340.825 55.846874 340.825Q56.534374 340.825 57.05 341.10626Q57.58125 341.3875 57.925 341.91876Q58.26875 342.4344 58.45625 343.1844Q58.64375 343.9344 58.64375 345.21564Q58.64375 346.73126 58.33125 347.65314Q58.034374 348.575 57.409374 349.09064Q56.8 349.59064 55.846874 349.59064Q54.6125 349.59064 53.89375 348.7Q53.05 347.6375 53.05 345.21564ZM54.128124 345.21564Q54.128124 347.325 54.628124 348.02814Q55.128124 348.73126 55.846874 348.73126Q56.58125 348.73126 57.065624 348.02814Q57.565624 347.325 57.565624 345.21564Q57.565624 343.09064 57.065624 342.40314Q56.58125 341.7 55.83125 341.7Q55.1125 341.7 54.675 342.3094Q54.128124 343.09064 54.128124 345.21564Z" fill-rule="nonzero"/><path fill="#000000" d="M120.04303 348.4344L120.04303 349.45L114.35553 349.45Q114.35553 349.075 114.48053 348.71564Q114.69928 348.1375 115.16803 347.575Q115.652405 347.0125 116.558655 346.27814Q117.964905 345.1219 118.44928 344.45Q118.94928 343.77814 118.94928 343.1844Q118.94928 342.5594 118.496155 342.1375Q118.04303 341.7 117.32428 341.7Q116.558655 341.7 116.10553 342.15314Q115.652405 342.60626 115.63678 343.41876L114.558655 343.3094Q114.66803 342.09064 115.38678 341.46564Q116.121155 340.825 117.35553 340.825Q118.589905 340.825 119.308655 341.5125Q120.027405 342.2 120.027405 343.21564Q120.027405 343.73126 119.808655 344.23126Q119.60553 344.71564 119.10553 345.27814Q118.621155 345.825 117.496155 346.77814Q116.54303 347.575 116.26178 347.8719Q115.996155 348.15314 115.82428 348.4344L120.04303 348.4344ZM121.496155 345.21564Q121.496155 343.6844 121.808655 342.7625Q122.121155 341.825 122.73053 341.325Q123.35553 340.825 124.29303 340.825Q124.98053 340.825 125.496155 341.10626Q126.027405 341.3875 126.371155 341.91876Q126.714905 342.4344 126.902405 343.1844Q127.089905 343.9344 127.089905 345.21564Q127.089905 346.73126 126.777405 347.65314Q126.48053 348.575 125.85553 349.09064Q125.246155 349.59064 124.29303 349.59064Q123.058655 349.59064 122.339905 348.7Q121.496155 347.6375 121.496155 345.21564ZM122.57428 345.21564Q122.57428 347.325 123.07428 348.02814Q123.57428 348.73126 124.29303 348.73126Q125.027405 348.73126 125.51178 348.02814Q126.01178 347.325 126.01178 345.21564Q126.01178 343.09064 125.51178 342.40314Q125.027405 341.7 124.277405 341.7Q123.558655 341.7 123.121155 342.3094Q122.57428 343.09064 122.57428 345.21564ZM132.4649 349.45L131.41803 349.45L131.41803 342.73126Q131.0274 343.09064 130.4024 343.46564Q129.79303 343.825 129.30865 343.9969L129.30865 342.98126Q130.18365 342.5594 130.8399 341.98126Q131.51178 341.3875 131.79303 340.825L132.4649 340.825L132.4649 349.45ZM141.04303 348.4344L141.04303 349.45L135.35553 349.45Q135.35553 349.075 135.48053 348.71564Q135.69928 348.1375 136.16803 347.575Q136.6524 347.0125 137.55865 346.27814Q138.9649 345.1219 139.44928 344.45Q139.94928 343.77814 139.94928 343.1844Q139.94928 342.5594 139.49615 342.1375Q139.04303 341.7 138.32428 341.7Q137.55865 341.7 137.10553 342.15314Q136.6524 342.60626 136.63678 343.41876L135.55865 343.3094Q135.66803 342.09064 136.38678 341.46564Q137.12115 340.825 138.35553 340.825Q139.5899 340.825 140.30865 341.5125Q141.0274 342.2 141.0274 343.21564Q141.0274 343.73126 140.80865 344.23126Q140.60553 344.71564 140.10553 345.27814Q139.62115 345.825 138.49615 346.77814Q137.54303 347.575 137.26178 347.8719Q136.99615 348.15314 136.82428 348.4344L141.04303 348.4344Z" fill-rule="nonzero"/><path fill="#000000" d="M202.48918 348.4344L202.48918 349.45L196.80168 349.45Q196.80168 349.075 196.92668 348.71564Q197.14543 348.1375 197.61418 347.575Q198.09856 347.0125 199.0048 346.27814Q200.41106 345.1219 200.89543 344.45Q201.39543 343.77814 201.39543 343.1844Q201.39543 342.5594 200.9423 342.1375Q200.48918 341.7 199.77043 341.7Q199.0048 341.7 198.55168 342.15314Q198.09856 342.60626 198.08293 343.41876L197.0048 343.3094Q197.11418 342.09064 197.83293 341.46564Q198.5673 340.825 199.80168 340.825Q201.03606 340.825 201.7548 341.5125Q202.47356 342.2 202.47356 343.21564Q202.47356 343.73126 202.2548 344.23126Q202.05168 344.71564 201.55168 345.27814Q201.0673 345.825 199.9423 346.77814Q198.98918 347.575 198.70793 347.8719Q198.4423 348.15314 198.27043 348.4344L202.48918 348.4344ZM203.9423 345.21564Q203.9423 343.6844 204.2548 342.7625Q204.5673 341.825 205.17668 341.325Q205.80168 340.825 206.73918 340.825Q207.42668 340.825 207.9423 341.10626Q208.47356 341.3875 208.8173 341.91876Q209.16106 342.4344 209.34856 343.1844Q209.53606 343.9344 209.53606 345.21564Q209.53606 346.73126 209.22356 347.65314Q208.92668 348.575 208.30168 349.09064Q207.6923 349.59064 206.73918 349.59064Q205.5048 349.59064 204.78606 348.7Q203.9423 347.6375 203.9423 345.21564ZM205.02043 345.21564Q205.02043 347.325 205.52043 348.02814Q206.02043 348.73126 206.73918 348.73126Q207.47356 348.73126 207.95793 348.02814Q208.45793 347.325 208.45793 345.21564Q208.45793 343.09064 207.95793 342.40314Q207.47356 341.7 206.72356 341.7Q206.0048 341.7 205.5673 342.3094Q205.02043 343.09064 205.02043 345.21564ZM214.91106 349.45L213.86418 349.45L213.86418 342.73126Q213.47356 343.09064 212.84856 343.46564Q212.23918 343.825 211.7548 343.9969L211.7548 342.98126Q212.6298 342.5594 213.28606 341.98126Q213.95793 341.3875 214.23918 340.825L214.91106 340.825L214.91106 349.45ZM221.3173 349.45L221.3173 347.3875L217.59856 347.3875L217.59856 346.41876L221.52043 340.85626L222.3798 340.85626L222.3798 346.41876L223.53606 346.41876L223.53606 347.3875L222.3798 347.3875L222.3798 349.45L221.3173 349.45ZM221.3173 346.41876L221.3173 342.5594L218.6298 346.41876L221.3173 346.41876Z" fill-rule="nonzero"/><path fill="#000000" d="M284.93533 348.4344L284.93533 349.45L279.24783 349.45Q279.24783 349.075 279.37283 348.71564Q279.59158 348.1375 280.06033 347.575Q280.5447 347.0125 281.45096 346.27814Q282.8572 345.1219 283.34158 344.45Q283.84158 343.77814 283.84158 343.1844Q283.84158 342.5594 283.38846 342.1375Q282.93533 341.7 282.21658 341.7Q281.45096 341.7 280.99783 342.15314Q280.5447 342.60626 280.52908 343.41876L279.45096 343.3094Q279.56033 342.09064 280.27908 341.46564Q281.01346 340.825 282.24783 340.825Q283.4822 340.825 284.20096 341.5125Q284.9197 342.2 284.9197 343.21564Q284.9197 343.73126 284.70096 344.23126Q284.49783 344.71564 283.99783 345.27814Q283.51346 345.825 282.38846 346.77814Q281.43533 347.575 281.15408 347.8719Q280.88846 348.15314 280.71658 348.4344L284.93533 348.4344ZM286.38846 345.21564Q286.38846 343.6844 286.70096 342.7625Q287.01346 341.825 287.62283 341.325Q288.24783 340.825 289.18533 340.825Q289.87283 340.825 290.38846 341.10626Q290.9197 341.3875 291.26346 341.91876Q291.6072 342.4344 291.7947 343.1844Q291.9822 343.9344 291.9822 345.21564Q291.9822 346.73126 291.6697 347.65314Q291.37283 348.575 290.74783 349.09064Q290.13846 349.59064 289.18533 349.59064Q287.95096 349.59064 287.2322 348.7Q286.38846 347.6375 286.38846 345.21564ZM287.46658 345.21564Q287.46658 347.325 287.96658 348.02814Q288.46658 348.73126 289.18533 348.73126Q289.9197 348.73126 290.40408 348.02814Q290.90408 347.325 290.90408 345.21564Q290.90408 343.09064 290.40408 342.40314Q289.9197 341.7 289.1697 341.7Q288.45096 341.7 288.01346 342.3094Q287.46658 343.09064 287.46658 345.21564ZM297.3572 349.45L296.31033 349.45L296.31033 342.73126Q295.9197 343.09064 295.2947 343.46564Q294.68533 343.825 294.20096 343.9969L294.20096 342.98126Q295.07596 342.5594 295.7322 341.98126Q296.40408 341.3875 296.68533 340.825L297.3572 340.825L297.3572 349.45ZM305.8572 342.96564L304.81033 343.04376Q304.6697 342.41876 304.4197 342.1375Q303.9822 341.6844 303.3572 341.6844Q302.8572 341.6844 302.46658 341.96564Q301.9822 342.34064 301.68533 343.04376Q301.40408 343.73126 301.38846 345.0125Q301.76346 344.4344 302.31033 344.15314Q302.87283 343.8719 303.4822 343.8719Q304.52908 343.8719 305.26346 344.65314Q306.01346 345.4344 306.01346 346.65314Q306.01346 347.46564 305.65408 348.16876Q305.31033 348.85626 304.70096 349.23126Q304.09158 349.59064 303.32596 349.59064Q301.99783 349.59064 301.1697 348.6219Q300.34158 347.65314 300.34158 345.4344Q300.34158 342.9344 301.26346 341.8094Q302.06033 340.825 303.4197 340.825Q304.43533 340.825 305.07596 341.40314Q305.7322 341.96564 305.8572 342.96564ZM301.56033 346.66876Q301.56033 347.21564 301.77908 347.71564Q302.01346 348.2 302.4197 348.46564Q302.84158 348.73126 303.31033 348.73126Q303.96658 348.73126 304.45096 348.2Q304.93533 347.65314 304.93533 346.73126Q304.93533 345.84064 304.45096 345.325Q303.9822 344.8094 303.26346 344.8094Q302.5447 344.8094 302.0447 345.325Q301.56033 345.84064 301.56033 346.66876Z" fill-rule="nonzero"/><path fill="#000000" d="M367.3815 348.4344L367.3815 349.45L361.694 349.45Q361.694 349.075 361.819 348.71564Q362.03775 348.1375 362.5065 347.575Q362.99088 347.0125 363.89713 346.27814Q365.30338 345.1219 365.78775 344.45Q366.28775 343.77814 366.28775 343.1844Q366.28775 342.5594 365.83463 342.1375Q365.3815 341.7 364.66275 341.7Q363.89713 341.7 363.444 342.15314Q362.99088 342.60626 362.97525 343.41876L361.89713 343.3094Q362.0065 342.09064 362.72525 341.46564Q363.45963 340.825 364.694 340.825Q365.92838 340.825 366.64713 341.5125Q367.36588 342.2 367.36588 343.21564Q367.36588 343.73126 367.14713 344.23126Q366.944 344.71564 366.444 345.27814Q365.95963 345.825 364.83463 346.77814Q363.8815 347.575 363.60025 347.8719Q363.33463 348.15314 363.16275 348.4344L367.3815 348.4344ZM368.83463 345.21564Q368.83463 343.6844 369.14713 342.7625Q369.45963 341.825 370.069 341.325Q370.694 340.825 371.6315 340.825Q372.319 340.825 372.83463 341.10626Q373.36588 341.3875 373.70963 341.91876Q374.05338 342.4344 374.24088 343.1844Q374.42838 343.9344 374.42838 345.21564Q374.42838 346.73126 374.11588 347.65314Q373.819 348.575 373.194 349.09064Q372.58463 349.59064 371.6315 349.59064Q370.39713 349.59064 369.67838 348.7Q368.83463 347.6375 368.83463 345.21564ZM369.91275 345.21564Q369.91275 347.325 370.41275 348.02814Q370.91275 348.73126 371.6315 348.73126Q372.36588 348.73126 372.85025 348.02814Q373.35025 347.325 373.35025 345.21564Q373.35025 343.09064 372.85025 342.40314Q372.36588 341.7 371.61588 341.7Q370.89713 341.7 370.45963 342.3094Q369.91275 343.09064 369.91275 345.21564ZM379.80338 349.45L378.7565 349.45L378.7565 342.73126Q378.36588 343.09064 377.74088 343.46564Q377.1315 343.825 376.64713 343.9969L376.64713 342.98126Q377.52213 342.5594 378.17838 341.98126Q378.85025 341.3875 379.1315 340.825L379.80338 340.825L379.80338 349.45ZM384.45963 344.79376Q383.80338 344.54376 383.47525 344.10626Q383.16275 343.65314 383.16275 343.04376Q383.16275 342.10626 383.83463 341.46564Q384.52213 340.825 385.6315 340.825Q386.7565 340.825 387.444 341.48126Q388.1315 342.1375 388.1315 343.075Q388.1315 343.66876 387.819 344.10626Q387.5065 344.54376 386.86588 344.79376Q387.66275 345.04376 388.069 345.6219Q388.47525 346.2 388.47525 346.9969Q388.47525 348.09064 387.694 348.84064Q386.92838 349.59064 385.64713 349.59064Q384.3815 349.59064 383.60025 348.84064Q382.819 348.09064 382.819 346.96564Q382.819 346.1219 383.24088 345.5594Q383.67838 344.9969 384.45963 344.79376ZM384.24088 342.9969Q384.24088 343.60626 384.6315 343.9969Q385.03775 344.3875 385.66275 344.3875Q386.27213 344.3875 386.66275 344.0125Q387.05338 343.6219 387.05338 343.0594Q387.05338 342.48126 386.64713 342.09064Q386.24088 341.6844 385.64713 341.6844Q385.03775 341.6844 384.6315 342.075Q384.24088 342.46564 384.24088 342.9969ZM383.91275 346.96564Q383.91275 347.41876 384.11588 347.84064Q384.33463 348.2625 384.7565 348.4969Q385.17838 348.73126 385.66275 348.73126Q386.41275 348.73126 386.89713 348.2469Q387.39713 347.7625 387.39713 347.0125Q387.39713 346.2469 386.89713 345.7469Q386.39713 345.2469 385.6315 345.2469Q384.8815 345.2469 384.39713 345.7469Q383.91275 346.23126 383.91275 346.96564Z" fill-rule="nonzero"/><path fill="#000000" d="M449.82764 348.4344L449.82764 349.45L444.14014 349.45Q444.14014 349.075 444.26514 348.71564Q444.4839 348.1375 444.95264 347.575Q445.437 347.0125 446.34326 346.27814Q447.7495 345.1219 448.2339 344.45Q448.7339 343.77814 448.7339 343.1844Q448.7339 342.5594 448.28076 342.1375Q447.82764 341.7 447.1089 341.7Q446.34326 341.7 445.89014 342.15314Q445.437 342.60626 445.4214 343.41876L444.34326 343.3094Q444.45264 342.09064 445.1714 341.46564Q445.90576 340.825 447.14014 340.825Q448.3745 340.825 449.09326 341.5125Q449.812 342.2 449.812 343.21564Q449.812 343.73126 449.59326 344.23126Q449.39014 344.71564 448.89014 345.27814Q448.40576 345.825 447.28076 346.77814Q446.32764 347.575 446.0464 347.8719Q445.78076 348.15314 445.6089 348.4344L449.82764 348.4344ZM451.28076 345.21564Q451.28076 343.6844 451.59326 342.7625Q451.90576 341.825 452.51514 341.325Q453.14014 340.825 454.07764 340.825Q454.76514 340.825 455.28076 341.10626Q455.812 341.3875 456.15576 341.91876Q456.4995 342.4344 456.687 343.1844Q456.8745 343.9344 456.8745 345.21564Q456.8745 346.73126 456.562 347.65314Q456.26514 348.575 455.64014 349.09064Q455.03076 349.59064 454.07764 349.59064Q452.84326 349.59064 452.1245 348.7Q451.28076 347.6375 451.28076 345.21564ZM452.3589 345.21564Q452.3589 347.325 452.8589 348.02814Q453.3589 348.73126 454.07764 348.73126Q454.812 348.73126 455.2964 348.02814Q455.7964 347.325 455.7964 345.21564Q455.7964 343.09064 455.2964 342.40314Q454.812 341.7 454.062 341.7Q453.34326 341.7 452.90576 342.3094Q452.3589 343.09064 452.3589 345.21564ZM463.82764 348.4344L463.82764 349.45L458.14014 349.45Q458.14014 349.075 458.26514 348.71564Q458.4839 348.1375 458.95264 347.575Q459.437 347.0125 460.34326 346.27814Q461.7495 345.1219 462.2339 344.45Q462.7339 343.77814 462.7339 343.1844Q462.7339 342.5594 462.28076 342.1375Q461.82764 341.7 461.1089 341.7Q460.34326 341.7 459.89014 342.15314Q459.437 342.60626 459.4214 343.41876L458.34326 343.3094Q458.45264 342.09064 459.1714 341.46564Q459.90576 340.825 461.14014 340.825Q462.3745 340.825 463.09326 341.5125Q463.812 342.2 463.812 343.21564Q463.812 343.73126 463.59326 344.23126Q463.39014 344.71564 462.89014 345.27814Q462.40576 345.825 461.28076 346.77814Q460.32764 347.575 460.0464 347.8719Q459.78076 348.15314 459.6089 348.4344L463.82764 348.4344ZM465.28076 345.21564Q465.28076 343.6844 465.59326 342.7625Q465.90576 341.825 466.51514 341.325Q467.14014 340.825 468.07764 340.825Q468.76514 340.825 469.28076 341.10626Q469.812 341.3875 470.15576 341.91876Q470.4995 342.4344 470.687 343.1844Q470.8745 343.9344 470.8745 345.21564Q470.8745 346.73126 470.562 347.65314Q470.26514 348.575 469.64014 349.09064Q469.03076 349.59064 468.07764 349.59064Q466.84326 349.59064 466.1245 348.7Q465.28076 347.6375 465.28076 345.21564ZM466.3589 345.21564Q466.3589 347.325 466.8589 348.02814Q467.3589 348.73126 468.07764 348.73126Q468.812 348.73126 469.2964 348.02814Q469.7964 347.325 469.7964 345.21564Q469.7964 343.09064 469.2964 342.40314Q468.812 341.7 468.062 341.7Q467.34326 341.7 466.90576 342.3094Q466.3589 343.09064 466.3589 345.21564Z" fill-rule="nonzero"/><path fill="#000000" d="M532.2738 348.4344L532.2738 349.45L526.5863 349.45Q526.5863 349.075 526.7113 348.71564Q526.93005 348.1375 527.3988 347.575Q527.8832 347.0125 528.7894 346.27814Q530.1957 345.1219 530.68005 344.45Q531.18005 343.77814 531.18005 343.1844Q531.18005 342.5594 530.7269 342.1375Q530.2738 341.7 529.55505 341.7Q528.7894 341.7 528.3363 342.15314Q527.8832 342.60626 527.86755 343.41876L526.7894 343.3094Q526.8988 342.09064 527.61755 341.46564Q528.3519 340.825 529.5863 340.825Q530.8207 340.825 531.5394 341.5125Q532.2582 342.2 532.2582 343.21564Q532.2582 343.73126 532.0394 344.23126Q531.8363 344.71564 531.3363 345.27814Q530.8519 345.825 529.7269 346.77814Q528.7738 347.575 528.49255 347.8719Q528.2269 348.15314 528.05505 348.4344L532.2738 348.4344ZM533.7269 345.21564Q533.7269 343.6844 534.0394 342.7625Q534.3519 341.825 534.9613 341.325Q535.5863 340.825 536.5238 340.825Q537.2113 340.825 537.7269 341.10626Q538.2582 341.3875 538.6019 341.91876Q538.9457 342.4344 539.1332 343.1844Q539.3207 343.9344 539.3207 345.21564Q539.3207 346.73126 539.0082 347.65314Q538.7113 348.575 538.0863 349.09064Q537.4769 349.59064 536.5238 349.59064Q535.2894 349.59064 534.5707 348.7Q533.7269 347.6375 533.7269 345.21564ZM534.80505 345.21564Q534.80505 347.325 535.30505 348.02814Q535.80505 348.73126 536.5238 348.73126Q537.2582 348.73126 537.74255 348.02814Q538.24255 347.325 538.24255 345.21564Q538.24255 343.09064 537.74255 342.40314Q537.2582 341.7 536.5082 341.7Q535.7894 341.7 535.3519 342.3094Q534.80505 343.09064 534.80505 345.21564ZM546.2738 348.4344L546.2738 349.45L540.5863 349.45Q540.5863 349.075 540.7113 348.71564Q540.93005 348.1375 541.3988 347.575Q541.8832 347.0125 542.7894 346.27814Q544.1957 345.1219 544.68005 344.45Q545.18005 343.77814 545.18005 343.1844Q545.18005 342.5594 544.7269 342.1375Q544.2738 341.7 543.55505 341.7Q542.7894 341.7 542.3363 342.15314Q541.8832 342.60626 541.86755 343.41876L540.7894 343.3094Q540.8988 342.09064 541.61755 341.46564Q542.3519 340.825 543.5863 340.825Q544.8207 340.825 545.5394 341.5125Q546.2582 342.2 546.2582 343.21564Q546.2582 343.73126 546.0394 344.23126Q545.8363 344.71564 545.3363 345.27814Q544.8519 345.825 543.7269 346.77814Q542.7738 347.575 542.49255 347.8719Q542.2269 348.15314 542.05505 348.4344L546.2738 348.4344ZM553.2738 348.4344L553.2738 349.45L547.5863 349.45Q547.5863 349.075 547.7113 348.71564Q547.93005 348.1375 548.3988 347.575Q548.8832 347.0125 549.7894 346.27814Q551.1957 345.1219 551.68005 344.45Q552.18005 343.77814 552.18005 343.1844Q552.18005 342.5594 551.7269 342.1375Q551.2738 341.7 550.55505 341.7Q549.7894 341.7 549.3363 342.15314Q548.8832 342.60626 548.86755 343.41876L547.7894 343.3094Q547.8988 342.09064 548.61755 341.46564Q549.3519 340.825 550.5863 340.825Q551.8207 340.825 552.5394 341.5125Q553.2582 342.2 553.2582 343.21564Q553.2582 343.73126 553.0394 344.23126Q552.8363 344.71564 552.3363 345.27814Q551.8519 345.825 550.7269 346.77814Q549.7738 347.575 549.49255 347.8719Q549.2269 348.15314 549.05505 348.4344L553.2738 348.4344Z" fill-rule="nonzero"/><path stroke="#4285f4" stroke-width="4.0" stroke-linecap="butt" d="M250.0 61.916668L262.0 61.916668" fill-rule="nonzero"/><path fill="#1a1a1a" d="M270.79688 68.30729L270.79688 59.697914L271.75 59.697914L271.75 60.49479Q272.09375 60.02604 272.51562 59.791664Q272.95312 59.55729 273.5625 59.55729Q274.35938 59.55729 274.96875 59.96354Q275.57812 60.36979 275.875 61.11979Q276.1875 61.86979 276.1875 62.760414Q276.1875 63.71354 275.84375 64.479164Q275.51562 65.24479 274.85938 65.65104Q274.20312 66.05729 273.48438 66.05729Q272.95312 66.05729 272.53125 65.83854Q272.10938 65.604164 271.84375 65.27604L271.84375 68.30729L270.79688 68.30729ZM271.75 62.83854Q271.75 64.041664 272.23438 64.61979Q272.71875 65.18229 273.40625 65.18229Q274.10938 65.18229 274.60938 64.58854Q275.10938 63.99479 275.10938 62.74479Q275.10938 61.55729 274.625 60.979164Q274.14062 60.385414 273.45312 60.385414Q272.78125 60.385414 272.26562 61.010414Q271.75 61.635414 271.75 62.83854ZM277.78125 65.916664L277.78125 59.697914L278.73438 59.697914L278.73438 60.635414Q279.09375 59.979164 279.39062 59.77604Q279.70312 59.55729 280.07812 59.55729Q280.60938 59.55729 281.15625 59.885414L280.79688 60.86979Q280.40625 60.635414 280.03125 60.635414Q279.67188 60.635414 279.39062 60.854164Q279.125 61.05729 279.01562 61.43229Q278.82812 61.99479 278.82812 62.65104L278.82812 65.916664L277.78125 65.916664ZM285.85938 65.15104Q285.26562 65.65104 284.71875 65.854164Q284.1875 66.05729 283.5625 66.05729Q282.53125 66.05729 281.98438 65.55729Q281.4375 65.05729 281.4375 64.27604Q281.4375 63.822914 281.64062 63.447914Q281.84375 63.05729 282.1875 62.83854Q282.53125 62.604164 282.95312 62.49479Q283.25 62.40104 283.89062 62.322914Q285.15625 62.18229 285.76562 61.96354Q285.76562 61.74479 285.76562 61.697914Q285.76562 61.041664 285.46875 60.77604Q285.0625 60.43229 284.26562 60.43229Q283.53125 60.43229 283.17188 60.697914Q282.8125 60.947914 282.64062 61.604164L281.60938 61.46354Q281.75 60.80729 282.07812 60.40104Q282.40625 59.99479 283.01562 59.77604Q283.625 59.55729 284.42188 59.55729Q285.21875 59.55729 285.71875 59.74479Q286.21875 59.93229 286.45312 60.21354Q286.6875 60.49479 286.78125 60.93229Q286.82812 61.197914 286.82812 61.90104L286.82812 63.30729Q286.82812 64.77604 286.89062 65.166664Q286.96875 65.55729 287.17188 65.916664L286.0625 65.916664Q285.90625 65.58854 285.85938 65.15104ZM285.76562 62.791664Q285.1875 63.02604 284.04688 63.197914Q283.39062 63.291664 283.125 63.416664Q282.85938 63.52604 282.70312 63.74479Q282.5625 63.96354 282.5625 64.24479Q282.5625 64.666664 282.875 64.947914Q283.20312 65.229164 283.8125 65.229164Q284.42188 65.229164 284.89062 64.96354Q285.375 64.697914 285.59375 64.229164Q285.76562 63.86979 285.76562 63.18229L285.76562 62.791664ZM286.9375 65.916664Q286.60938 66.11979 286.42188 66.416664Q286.23438 66.729164 286.23438 67.041664Q286.23438 67.27604 286.375 67.447914Q286.51562 67.61979 286.8125 67.61979Q286.95312 67.61979 287.09375 67.572914Q287.23438 67.541664 287.34375 67.479164L287.34375 68.229164Q286.92188 68.43229 286.54688 68.43229Q286.25 68.43229 286.03125 68.33854Q285.8125 68.260414 285.65625 68.104164Q285.51562 67.96354 285.4375 67.77604Q285.35938 67.58854 285.35938 67.354164Q285.35938 66.979164 285.5625 66.604164Q285.78125 66.229164 286.17188 65.916664L286.9375 65.916664ZM292.82812 65.916664L292.82812 65.135414Q292.23438 66.05729 291.09375 66.05729Q290.34375 66.05729 289.71875 65.65104Q289.09375 65.229164 288.75 64.49479Q288.40625 63.760414 288.40625 62.80729Q288.40625 61.885414 288.71875 61.11979Q289.03125 60.354164 289.65625 59.96354Q290.28125 59.55729 291.04688 59.55729Q291.60938 59.55729 292.04688 59.791664Q292.48438 60.02604 292.76562 60.40104L292.76562 57.322914L293.8125 57.322914L293.8125 65.916664L292.82812 65.916664ZM289.5 62.80729Q289.5 64.010414 290.0 64.604164Q290.5 65.18229 291.1875 65.18229Q291.875 65.18229 292.35938 64.61979Q292.84375 64.05729 292.84375 62.90104Q292.84375 61.61979 292.34375 61.02604Q291.85938 60.43229 291.14062 60.43229Q290.4375 60.43229 289.96875 61.010414Q289.5 61.572914 289.5 62.80729Z" fill-rule="nonzero"/><path stroke="#ea4335" stroke-width="4.0" stroke-linecap="butt" d="M311.0 61.916668L323.0 61.916668" fill-rule="nonzero"/><path fill="#1a1a1a" d="M331.59375 66.43229L332.625 66.58854Q332.6875 67.05729 332.98438 67.27604Q333.375 67.572914 334.04688 67.572914Q334.78125 67.572914 335.17188 67.27604Q335.57812 66.979164 335.71875 66.46354Q335.8125 66.135414 335.79688 65.104164Q335.10938 65.916664 334.07812 65.916664Q332.79688 65.916664 332.09375 64.99479Q331.39062 64.05729 331.39062 62.77604Q331.39062 61.885414 331.70312 61.135414Q332.03125 60.36979 332.64062 59.96354Q333.25 59.55729 334.07812 59.55729Q335.1875 59.55729 335.90625 60.447914L335.90625 59.697914L336.875 59.697914L336.875 65.072914Q336.875 66.52604 336.57812 67.135414Q336.28125 67.74479 335.64062 68.08854Q335.0 68.447914 334.0625 68.447914Q332.95312 68.447914 332.26562 67.947914Q331.57812 67.447914 331.59375 66.43229ZM332.46875 62.697914Q332.46875 63.916664 332.95312 64.479164Q333.4375 65.041664 334.17188 65.041664Q334.90625 65.041664 335.39062 64.479164Q335.89062 63.916664 335.89062 62.729164Q335.89062 61.58854 335.375 61.010414Q334.875 60.43229 334.15625 60.43229Q333.45312 60.43229 332.95312 61.010414Q332.46875 61.572914 332.46875 62.697914ZM342.85938 65.15104Q342.26562 65.65104 341.71875 65.854164Q341.1875 66.05729 340.5625 66.05729Q339.53125 66.05729 338.98438 65.55729Q338.4375 65.05729 338.4375 64.27604Q338.4375 63.822914 338.64062 63.447914Q338.84375 63.05729 339.1875 62.83854Q339.53125 62.604164 339.95312 62.49479Q340.25 62.40104 340.89062 62.322914Q342.15625 62.18229 342.76562 61.96354Q342.76562 61.74479 342.76562 61.697914Q342.76562 61.041664 342.46875 60.77604Q342.0625 60.43229 341.26562 60.43229Q340.53125 60.43229 340.17188 60.697914Q339.8125 60.947914 339.64062 61.604164L338.60938 61.46354Q338.75 60.80729 339.07812 60.40104Q339.40625 59.99479 340.01562 59.77604Q340.625 59.55729 341.42188 59.55729Q342.21875 59.55729 342.71875 59.74479Q343.21875 59.93229 343.45312 60.21354Q343.6875 60.49479 343.78125 60.93229Q343.82812 61.197914 343.82812 61.90104L343.82812 63.30729Q343.82812 64.77604 343.89062 65.166664Q343.96875 65.55729 344.17188 65.916664L343.0625 65.916664Q342.90625 65.58854 342.85938 65.15104ZM342.76562 62.791664Q342.1875 63.02604 341.04688 63.197914Q340.39062 63.291664 340.125 63.416664Q339.85938 63.52604 339.70312 63.74479Q339.5625 63.96354 339.5625 64.24479Q339.5625 64.666664 339.875 64.947914Q340.20312 65.229164 340.8125 65.229164Q341.42188 65.229164 341.89062 64.96354Q342.375 64.697914 342.59375 64.229164Q342.76562 63.86979 342.76562 63.18229L342.76562 62.791664ZM345.23438 65.916664L345.23438 65.05729L349.20312 60.510414Q348.51562 60.541664 348.0 60.541664L345.46875 60.541664L345.46875 59.697914L350.5625 59.697914L350.5625 60.385414L347.1875 64.33854L346.53125 65.05729Q347.25 65.010414 347.85938 65.010414L350.75 65.010414L350.75 65.916664L345.23438 65.916664Z" fill-rule="nonzero"/><path fill="#757575" d="M26.64375 33.753124L28.3625 33.971874Q28.08125 35.76875 26.909374 36.784374Q25.753124 37.784374 24.05 37.784374Q21.925 37.784374 20.628124 36.39375Q19.33125 35.003124 19.33125 32.409374Q19.33125 30.721874 19.878124 29.471874Q20.440624 28.20625 21.58125 27.58125Q22.721874 26.940624 24.065624 26.940624Q25.753124 26.940624 26.815624 27.8Q27.89375 28.659374 28.20625 30.221874L26.4875 30.4875Q26.253124 29.440624 25.628124 28.925Q25.003124 28.39375 24.128124 28.39375Q22.8 28.39375 21.971874 29.346874Q21.14375 30.3 21.14375 32.346874Q21.14375 34.440624 21.940624 35.39375Q22.7375 36.33125 24.034374 36.33125Q25.065624 36.33125 25.753124 35.70625Q26.45625 35.065624 26.64375 33.753124ZM36.971874 34.20625L38.784374 34.440624Q38.3625 36.01875 37.190624 36.909374Q36.034374 37.784374 34.221874 37.784374Q31.95625 37.784374 30.6125 36.39375Q29.284374 34.9875 29.284374 32.45625Q29.284374 29.83125 30.628124 28.39375Q31.971874 26.940624 34.128124 26.940624Q36.20625 26.940624 37.51875 28.3625Q38.846874 29.76875 38.846874 32.346874Q38.846874 32.503124 38.83125 32.815624L31.096874 32.815624Q31.190624 34.51875 32.065624 35.425Q32.940624 36.33125 34.2375 36.33125Q35.20625 36.33125 35.878124 35.83125Q36.565624 35.315624 36.971874 34.20625ZM31.190624 31.3625L36.9875 31.3625Q36.878124 30.065624 36.33125 29.409374Q35.4875 28.39375 34.14375 28.39375Q32.940624 28.39375 32.1125 29.20625Q31.284374 30.003124 31.190624 31.3625ZM40.8625 37.55L40.8625 27.175L42.45625 27.175L42.45625 28.659374Q43.596874 26.940624 45.753124 26.940624Q46.690624 26.940624 47.471874 27.284374Q48.26875 27.6125 48.659374 28.159374Q49.05 28.70625 49.20625 29.45625Q49.3 29.95625 49.3 31.175L49.3 37.55L47.534374 37.55L47.534374 31.2375Q47.534374 30.159374 47.33125 29.628124Q47.128124 29.096874 46.596874 28.784374Q46.08125 28.471874 45.378124 28.471874Q44.253124 28.471874 43.440624 29.190624Q42.628124 29.89375 42.628124 31.878124L42.628124 37.55L40.8625 37.55ZM57.64375 36.26875Q56.659374 37.096874 55.753124 37.440624Q54.846874 37.784374 53.815624 37.784374Q52.1125 37.784374 51.190624 36.95625Q50.26875 36.1125 50.26875 34.815624Q50.26875 34.05 50.6125 33.425Q50.971874 32.8 51.534374 32.425Q52.096874 32.034374 52.8 31.83125Q53.315624 31.70625 54.3625 31.565624Q56.4875 31.315624 57.4875 30.971874Q57.503124 30.6125 57.503124 30.503124Q57.503124 29.440624 57.003124 28.9875Q56.33125 28.39375 55.003124 28.39375Q53.753124 28.39375 53.159374 28.83125Q52.58125 29.26875 52.3 30.378124L50.58125 30.14375Q50.815624 29.034374 51.346874 28.3625Q51.878124 27.675 52.89375 27.315624Q53.909374 26.940624 55.253124 26.940624Q56.58125 26.940624 57.409374 27.253124Q58.2375 27.565624 58.628124 28.05Q59.01875 28.51875 59.175 29.2375Q59.26875 29.690624 59.26875 30.8625L59.26875 33.20625Q59.26875 35.659374 59.378124 36.315624Q59.4875 36.95625 59.83125 37.55L57.9875 37.55Q57.721874 37.003124 57.64375 36.26875ZM57.4875 32.346874Q56.534374 32.7375 54.6125 33.003124Q53.534374 33.159374 53.08125 33.3625Q52.64375 33.55 52.39375 33.925Q52.14375 34.3 52.14375 34.76875Q52.14375 35.471874 52.675 35.940624Q53.20625 36.409374 54.2375 36.409374Q55.253124 36.409374 56.034374 35.971874Q56.83125 35.51875 57.20625 34.753124Q57.4875 34.14375 57.4875 32.9875L57.4875 32.346874ZM66.94063 37.55L66.94063 36.128124L73.55 28.55Q72.425 28.596874 71.56563 28.596874L67.33125 28.596874L67.33125 27.175L75.81563 27.175L75.81563 28.346874L70.19063 34.925L69.1125 36.128124Q70.28438 36.034374 71.33125 36.034374L76.12813 36.034374L76.12813 37.55L66.94063 37.55ZM83.64375 36.26875Q82.65938 37.096874 81.75313 37.440624Q80.84688 37.784374 79.81563 37.784374Q78.1125 37.784374 77.19063 36.95625Q76.26875 36.1125 76.26875 34.815624Q76.26875 34.05 76.6125 33.425Q76.97188 32.8 77.53438 32.425Q78.09688 32.034374 78.8 31.83125Q79.31563 31.70625 80.3625 31.565624Q82.4875 31.315624 83.4875 30.971874Q83.50313 30.6125 83.50313 30.503124Q83.50313 29.440624 83.00313 28.9875Q82.33125 28.39375 81.00313 28.39375Q79.75313 28.39375 79.15938 28.83125Q78.58125 29.26875 78.3 30.378124L76.58125 30.14375Q76.81563 29.034374 77.34688 28.3625Q77.87813 27.675 78.89375 27.315624Q79.90938 26.940624 81.25313 26.940624Q82.58125 26.940624 83.40938 27.253124Q84.2375 27.565624 84.62813 28.05Q85.01875 28.51875 85.175 29.2375Q85.26875 29.690624 85.26875 30.8625L85.26875 33.20625Q85.26875 35.659374 85.37813 36.315624Q85.4875 36.95625 85.83125 37.55L83.9875 37.55Q83.72188 37.003124 83.64375 36.26875ZM83.4875 32.346874Q82.53438 32.7375 80.6125 33.003124Q79.53438 33.159374 79.08125 33.3625Q78.64375 33.55 78.39375 33.925Q78.14375 34.3 78.14375 34.76875Q78.14375 35.471874 78.675 35.940624Q79.20625 36.409374 80.2375 36.409374Q81.25313 36.409374 82.03438 35.971874Q82.83125 35.51875 83.20625 34.753124Q83.4875 34.14375 83.4875 32.9875L83.4875 32.346874ZM93.87813 37.55L93.87813 23.2375L95.64375 23.2375L95.64375 31.39375L99.8 27.175L102.06563 27.175L98.1125 31.01875L102.47188 37.55L100.3 37.55L96.87813 32.253124L95.64375 33.440624L95.64375 37.55L93.87813 37.55ZM103.87813 25.253124L103.87813 23.2375L105.64375 23.2375L105.64375 25.253124L103.87813 25.253124ZM103.87813 37.55L103.87813 27.175L105.64375 27.175L105.64375 37.55L103.87813 37.55ZM107.83125 37.55L107.83125 23.2375L109.58125 23.2375L109.58125 37.55L107.83125 37.55ZM111.22188 32.3625Q111.22188 29.4875 112.81563 28.096874Q114.15938 26.940624 116.08125 26.940624Q118.22188 26.940624 119.56563 28.346874Q120.925 29.753124 120.925 32.221874Q120.925 34.221874 120.33125 35.378124Q119.7375 36.51875 118.58125 37.159374Q117.44063 37.784374 116.08125 37.784374Q113.89375 37.784374 112.55 36.39375Q111.22188 34.9875 111.22188 32.3625ZM113.01875 32.3625Q113.01875 34.3625 113.87813 35.346874Q114.75313 36.33125 116.08125 36.33125Q117.39375 36.33125 118.25313 35.346874Q119.12813 34.346874 119.12813 32.3Q119.12813 30.378124 118.25313 29.39375Q117.37813 28.39375 116.08125 28.39375Q114.75313 28.39375 113.87813 29.39375Q113.01875 30.378124 113.01875 32.3625ZM124.78438 37.55L121.6125 27.175L123.425 27.175L125.08125 33.159374L125.69063 35.39375Q125.7375 35.221874 126.22188 33.253124L127.87813 27.175L129.69063 27.175L131.2375 33.190624L131.75313 35.175L132.34688 33.175L134.12813 27.175L135.83125 27.175L132.59688 37.55L130.76875 37.55L129.1125 31.33125L128.72188 29.565624L126.6125 37.55L124.78438 37.55ZM144.64375 36.26875Q143.65938 37.096874 142.75313 37.440624Q141.84688 37.784374 140.81563 37.784374Q139.1125 37.784374 138.19063 36.95625Q137.26875 36.1125 137.26875 34.815624Q137.26875 34.05 137.6125 33.425Q137.97188 32.8 138.53438 32.425Q139.09688 32.034374 139.8 31.83125Q140.31563 31.70625 141.3625 31.565624Q143.4875 31.315624 144.4875 30.971874Q144.50313 30.6125 144.50313 30.503124Q144.50313 29.440624 144.00313 28.9875Q143.33125 28.39375 142.00313 28.39375Q140.75313 28.39375 140.15938 28.83125Q139.58125 29.26875 139.3 30.378124L137.58125 30.14375Q137.81563 29.034374 138.34688 28.3625Q138.87813 27.675 139.89375 27.315624Q140.90938 26.940624 142.25313 26.940624Q143.58125 26.940624 144.40938 27.253124Q145.2375 27.565624 145.62813 28.05Q146.01875 28.51875 146.175 29.2375Q146.26875 29.690624 146.26875 30.8625L146.26875 33.20625Q146.26875 35.659374 146.37813 36.315624Q146.4875 36.95625 146.83125 37.55L144.9875 37.55Q144.72188 37.003124 144.64375 36.26875ZM144.4875 32.346874Q143.53438 32.7375 141.6125 33.003124Q140.53438 33.159374 140.08125 33.3625Q139.64375 33.55 139.39375 33.925Q139.14375 34.3 139.14375 34.76875Q139.14375 35.471874 139.675 35.940624Q140.20625 36.409374 141.2375 36.409374Q142.25313 36.409374 143.03438 35.971874Q143.83125 35.51875 144.20625 34.753124Q144.4875 34.14375 144.4875 32.9875L144.4875 32.346874ZM152.70625 35.971874L152.95625 37.534374Q152.22188 37.690624 151.62813 37.690624Q150.675 37.690624 150.14375 37.39375Q149.62813 37.08125 149.40938 36.596874Q149.19063 36.096874 149.19063 34.51875L149.19063 28.55L147.90938 28.55L147.90938 27.175L149.19063 27.175L149.19063 24.6125L150.94063 23.55L150.94063 27.175L152.70625 27.175L152.70625 28.55L150.94063 28.55L150.94063 34.6125Q150.94063 35.3625 151.03438 35.58125Q151.12813 35.784374 151.33125 35.925Q151.55 36.05 151.94063 36.05Q152.22188 36.05 152.70625 35.971874ZM162.78438 37.55L159.6125 27.175L161.425 27.175L163.08125 33.159374L163.69063 35.39375Q163.7375 35.221874 164.22188 33.253124L165.87813 27.175L167.69063 27.175L169.2375 33.190624L169.75313 35.175L170.34688 33.175L172.12813 27.175L173.83125 27.175L170.59688 37.55L168.76875 37.55L167.1125 31.33125L166.72188 29.565624L164.6125 37.55L162.78438 37.55ZM182.01875 37.55L182.01875 23.2375L183.90938 23.2375L183.90938 30.33125L191.01875 23.2375L193.58125 23.2375L187.58125 29.034374L193.84688 37.55L191.34688 37.55L186.25313 30.3L183.90938 32.58125L183.90938 37.55L182.01875 37.55ZM194.87813 25.253124L194.87813 23.2375L196.64375 23.2375L196.64375 25.253124L194.87813 25.253124ZM194.87813 37.55L194.87813 27.175L196.64375 27.175L196.64375 37.55L194.87813 37.55ZM198.8625 25.26875L198.8625 23.2375L200.6125 23.2375L200.6125 25.26875L198.8625 25.26875ZM196.62813 41.58125L196.95625 40.08125Q197.4875 40.221874 197.8 40.221874Q198.33125 40.221874 198.59688 39.8625Q198.8625 39.503124 198.8625 38.08125L198.8625 27.175L200.6125 27.175L200.6125 38.1125Q200.6125 40.034374 200.1125 40.784374Q199.4875 41.753124 198.00313 41.753124Q197.3 41.753124 196.62813 41.58125ZM202.22188 32.3625Q202.22188 29.4875 203.81563 28.096874Q205.15938 26.940624 207.08125 26.940624Q209.22188 26.940624 210.56563 28.346874Q211.925 29.753124 211.925 32.221874Q211.925 34.221874 211.33125 35.378124Q210.7375 36.51875 209.58125 37.159374Q208.44063 37.784374 207.08125 37.784374Q204.89375 37.784374 203.55 36.39375Q202.22188 34.9875 202.22188 32.3625ZM204.01875 32.3625Q204.01875 34.3625 204.87813 35.346874Q205.75313 36.33125 207.08125 36.33125Q208.39375 36.33125 209.25313 35.346874Q210.12813 34.346874 210.12813 32.3Q210.12813 30.378124 209.25313 29.39375Q208.37813 28.39375 207.08125 28.39375Q205.75313 28.39375 204.87813 29.39375Q204.01875 30.378124 204.01875 32.3625ZM215.78438 37.55L212.6125 27.175L214.425 27.175L216.08125 33.159374L216.69063 35.39375Q216.7375 35.221874 217.22188 33.253124L218.87813 27.175L220.69063 27.175L222.2375 33.190624L222.75313 35.175L223.34688 33.175L225.12813 27.175L226.83125 27.175L223.59688 37.55L221.76875 37.55L220.1125 31.33125L219.72188 29.565624L217.6125 37.55L215.78438 37.55ZM228.87813 25.253124L228.87813 23.2375L230.64375 23.2375L230.64375 25.253124L228.87813 25.253124ZM228.87813 37.55L228.87813 27.175L230.64375 27.175L230.64375 37.55L228.87813 37.55ZM239.97188 34.20625L241.78438 34.440624Q241.3625 36.01875 240.19063 36.909374Q239.03438 37.784374 237.22188 37.784374Q234.95625 37.784374 233.6125 36.39375Q232.28438 34.9875 232.28438 32.45625Q232.28438 29.83125 233.62813 28.39375Q234.97188 26.940624 237.12813 26.940624Q239.20625 26.940624 240.51875 28.3625Q241.84688 29.76875 241.84688 32.346874Q241.84688 32.503124 241.83125 32.815624L234.09688 32.815624Q234.19063 34.51875 235.06563 35.425Q235.94063 36.33125 237.2375 36.33125Q238.20625 36.33125 238.87813 35.83125Q239.56563 35.315624 239.97188 34.20625ZM234.19063 31.3625L239.9875 31.3625Q239.87813 30.065624 239.33125 29.409374Q238.4875 28.39375 237.14375 28.39375Q235.94063 28.39375 235.1125 29.20625Q234.28438 30.003124 234.19063 31.3625ZM242.55 37.8L246.70625 22.9875L248.1125 22.9875L243.97188 37.8L242.55 37.8ZM249.90938 41.51875L249.90938 23.2375L253.78438 23.2375L253.78438 24.690624L251.65938 24.690624L251.65938 40.065624L253.78438 40.065624L253.78438 41.51875L249.90938 41.51875ZM256.1281 37.55L256.1281 23.2375L266.4875 23.2375L266.4875 24.925L258.03436 24.925L258.03436 29.3L265.9406 29.3L265.9406 30.9875L258.03436 30.9875L258.03436 35.8625L266.8156 35.8625L266.8156 37.55L256.1281 37.55ZM275.65936 37.55L275.65936 36.01875Q274.45624 37.784374 272.3781 37.784374Q271.45624 37.784374 270.65936 37.440624Q269.8625 37.08125 269.47186 36.55Q269.09686 36.01875 268.9406 35.2375Q268.83124 34.721874 268.83124 33.596874L268.83124 27.175L270.58124 27.175L270.58124 32.925Q270.58124 34.3 270.6906 34.784374Q270.8625 35.471874 271.39374 35.878124Q271.9406 36.26875 272.72186 36.26875Q273.51874 36.26875 274.20624 35.8625Q274.90936 35.45625 275.1906 34.76875Q275.4875 34.065624 275.4875 32.7375L275.4875 27.175L277.2375 27.175L277.2375 37.55L275.65936 37.55ZM278.84686 37.55L278.84686 27.175L280.425 27.175L280.425 28.753124Q281.03436 27.64375 281.55 27.3Q282.0656 26.940624 282.675 26.940624Q283.5656 26.940624 284.4875 27.503124L283.8781 29.14375Q283.2375 28.753124 282.59686 28.753124Q282.01874 28.753124 281.55 29.1125Q281.09686 29.45625 280.89374 30.065624Q280.6125 31.003124 280.6125 32.1125L280.6125 37.55L278.84686 37.55ZM285.22186 32.3625Q285.22186 29.4875 286.8156 28.096874Q288.15936 26.940624 290.08124 26.940624Q292.22186 26.940624 293.5656 28.346874Q294.925 29.753124 294.925 32.221874Q294.925 34.221874 294.33124 35.378124Q293.7375 36.51875 292.58124 37.159374Q291.4406 37.784374 290.08124 37.784374Q287.89374 37.784374 286.55 36.39375Q285.22186 34.9875 285.22186 32.3625ZM287.01874 32.3625Q287.01874 34.3625 287.8781 35.346874Q288.7531 36.33125 290.08124 36.33125Q291.39374 36.33125 292.2531 35.346874Q293.1281 34.346874 293.1281 32.3Q293.1281 30.378124 292.2531 29.39375Q291.3781 28.39375 290.08124 28.39375Q288.7531 28.39375 287.8781 29.39375Q287.01874 30.378124 287.01874 32.3625ZM299.8156 41.51875L295.925 41.51875L295.925 40.065624L298.05 40.065624L298.05 24.690624L295.925 24.690624L295.925 23.2375L299.8156 23.2375L299.8156 41.51875ZM308.8781 25.253124L308.8781 23.2375L310.64374 23.2375L310.64374 25.253124L308.8781 25.253124ZM308.8781 37.55L308.8781 27.175L310.64374 27.175L310.64374 37.55L308.8781 37.55ZM325.64374 33.753124L327.3625 33.971874Q327.08124 35.76875 325.90936 36.784374Q324.7531 37.784374 323.05 37.784374Q320.925 37.784374 319.6281 36.39375Q318.33124 35.003124 318.33124 32.409374Q318.33124 30.721874 318.8781 29.471874Q319.4406 28.20625 320.58124 27.58125Q321.72186 26.940624 323.0656 26.940624Q324.7531 26.940624 325.8156 27.8Q326.89374 28.659374 327.20624 30.221874L325.4875 30.4875Q325.2531 29.440624 324.6281 28.925Q324.0031 28.39375 323.1281 28.39375Q321.8 28.39375 320.97186 29.346874Q320.14374 30.3 320.14374 32.346874Q320.14374 34.440624 320.9406 35.39375Q321.7375 36.33125 323.03436 36.33125Q324.0656 36.33125 324.7531 35.70625Q325.45624 35.065624 325.64374 33.753124ZM335.97186 34.20625L337.78436 34.440624Q337.3625 36.01875 336.1906 36.909374Q335.03436 37.784374 333.22186 37.784374Q330.95624 37.784374 329.6125 36.39375Q328.28436 34.9875 328.28436 32.45625Q328.28436 29.83125 329.6281 28.39375Q330.97186 26.940624 333.1281 26.940624Q335.20624 26.940624 336.51874 28.3625Q337.84686 29.76875 337.84686 32.346874Q337.84686 32.503124 337.83124 32.815624L330.09686 32.815624Q330.1906 34.51875 331.0656 35.425Q331.9406 36.33125 333.2375 36.33125Q334.20624 36.33125 334.8781 35.83125Q335.5656 35.315624 335.97186 34.20625ZM330.1906 31.3625L335.9875 31.3625Q335.8781 30.065624 335.33124 29.409374Q334.4875 28.39375 333.14374 28.39375Q331.9406 28.39375 331.1125 29.20625Q330.28436 30.003124 330.1906 31.3625ZM339.8625 37.55L339.8625 27.175L341.45624 27.175L341.45624 28.659374Q342.59686 26.940624 344.7531 26.940624Q345.6906 26.940624 346.47186 27.284374Q347.26874 27.6125 347.65936 28.159374Q348.05 28.70625 348.20624 29.45625Q348.3 29.95625 348.3 31.175L348.3 37.55L346.53436 37.55L346.53436 31.2375Q346.53436 30.159374 346.33124 29.628124Q346.1281 29.096874 345.59686 28.784374Q345.08124 28.471874 344.3781 28.471874Q343.2531 28.471874 342.4406 29.190624Q341.6281 29.89375 341.6281 31.878124L341.6281 37.55L339.8625 37.55ZM356.64374 36.26875Q355.65936 37.096874 354.7531 37.440624Q353.84686 37.784374 352.8156 37.784374Q351.1125 37.784374 350.1906 36.95625Q349.26874 36.1125 349.26874 34.815624Q349.26874 34.05 349.6125 33.425Q349.97186 32.8 350.53436 32.425Q351.09686 32.034374 351.8 31.83125Q352.3156 31.70625 353.3625 31.565624Q355.4875 31.315624 356.4875 30.971874Q356.5031 30.6125 356.5031 30.503124Q356.5031 29.440624 356.0031 28.9875Q355.33124 28.39375 354.0031 28.39375Q352.7531 28.39375 352.15936 28.83125Q351.58124 29.26875 351.3 30.378124L349.58124 30.14375Q349.8156 29.034374 350.34686 28.3625Q350.8781 27.675 351.89374 27.315624Q352.90936 26.940624 354.2531 26.940624Q355.58124 26.940624 356.40936 27.253124Q357.2375 27.565624 357.6281 28.05Q358.01874 28.51875 358.175 29.2375Q358.26874 29.690624 358.26874 30.8625L358.26874 33.20625Q358.26874 35.659374 358.3781 36.315624Q358.4875 36.95625 358.83124 37.55L356.9875 37.55Q356.72186 37.003124 356.64374 36.26875ZM356.4875 32.346874Q355.53436 32.7375 353.6125 33.003124Q352.53436 33.159374 352.08124 33.3625Q351.64374 33.55 351.39374 33.925Q351.14374 34.3 351.14374 34.76875Q351.14374 35.471874 351.675 35.940624Q352.20624 36.409374 353.2375 36.409374Q354.2531 36.409374 355.03436 35.971874Q355.83124 35.51875 356.20624 34.753124Q356.4875 34.14375 356.4875 32.9875L356.4875 32.346874ZM365.9406 37.55L365.9406 36.128124L372.55 28.55Q371.425 28.596874 370.5656 28.596874L366.33124 28.596874L366.33124 27.175L374.8156 27.175L374.8156 28.346874L369.1906 34.925L368.1125 36.128124Q369.28436 36.034374 370.33124 36.034374L375.1281 36.034374L375.1281 37.55L365.9406 37.55ZM382.64374 36.26875Q381.65936 37.096874 380.7531 37.440624Q379.84686 37.784374 378.8156 37.784374Q377.1125 37.784374 376.1906 36.95625Q375.26874 36.1125 375.26874 34.815624Q375.26874 34.05 375.6125 33.425Q375.97186 32.8 376.53436 32.425Q377.09686 32.034374 377.8 31.83125Q378.3156 31.70625 379.3625 31.565624Q381.4875 31.315624 382.4875 30.971874Q382.5031 30.6125 382.5031 30.503124Q382.5031 29.440624 382.0031 28.9875Q381.33124 28.39375 380.0031 28.39375Q378.7531 28.39375 378.15936 28.83125Q377.58124 29.26875 377.3 30.378124L375.58124 30.14375Q375.8156 29.034374 376.34686 28.3625Q376.8781 27.675 377.89374 27.315624Q378.90936 26.940624 380.2531 26.940624Q381.58124 26.940624 382.40936 27.253124Q383.2375 27.565624 383.6281 28.05Q384.01874 28.51875 384.175 29.2375Q384.26874 29.690624 384.26874 30.8625L384.26874 33.20625Q384.26874 35.659374 384.3781 36.315624Q384.4875 36.95625 384.83124 37.55L382.9875 37.55Q382.72186 37.003124 382.64374 36.26875ZM382.4875 32.346874Q381.53436 32.7375 379.6125 33.003124Q378.53436 33.159374 378.08124 33.3625Q377.64374 33.55 377.39374 33.925Q377.14374 34.3 377.14374 34.76875Q377.14374 35.471874 377.675 35.940624Q378.20624 36.409374 379.2375 36.409374Q380.2531 36.409374 381.03436 35.971874Q381.83124 35.51875 382.20624 34.753124Q382.4875 34.14375 382.4875 32.9875L382.4875 32.346874ZM392.55 38.409374L394.2531 38.659374Q394.3625 39.45625 394.84686 39.815624Q395.5031 40.3 396.64374 40.3Q397.8625 40.3 398.51874 39.815624Q399.1906 39.33125 399.425 38.45625Q399.5656 37.909374 399.55 36.190624Q398.39374 37.55 396.675 37.55Q394.53436 37.55 393.3625 36.003124Q392.1906 34.45625 392.1906 32.3Q392.1906 30.815624 392.72186 29.565624Q393.26874 28.315624 394.28436 27.628124Q395.3156 26.940624 396.6906 26.940624Q398.51874 26.940624 399.72186 28.425L399.72186 27.175L401.33124 27.175L401.33124 36.14375Q401.33124 38.565624 400.83124 39.565624Q400.34686 40.58125 399.26874 41.159374Q398.20624 41.753124 396.64374 41.753124Q394.8 41.753124 393.64374 40.925Q392.5031 40.096874 392.55 38.409374ZM394.0031 32.175Q394.0031 34.221874 394.8156 35.159374Q395.6281 36.096874 396.84686 36.096874Q398.05 36.096874 398.8625 35.159374Q399.6906 34.221874 399.6906 32.2375Q399.6906 30.33125 398.84686 29.3625Q398.0031 28.39375 396.8156 28.39375Q395.64374 28.39375 394.8156 29.346874Q394.0031 30.3 394.0031 32.175ZM410.64374 36.26875Q409.65936 37.096874 408.7531 37.440624Q407.84686 37.784374 406.8156 37.784374Q405.1125 37.784374 404.1906 36.95625Q403.26874 36.1125 403.26874 34.815624Q403.26874 34.05 403.6125 33.425Q403.97186 32.8 404.53436 32.425Q405.09686 32.034374 405.8 31.83125Q406.3156 31.70625 407.3625 31.565624Q409.4875 31.315624 410.4875 30.971874Q410.5031 30.6125 410.5031 30.503124Q410.5031 29.440624 410.0031 28.9875Q409.33124 28.39375 408.0031 28.39375Q406.7531 28.39375 406.15936 28.83125Q405.58124 29.26875 405.3 30.378124L403.58124 30.14375Q403.8156 29.034374 404.34686 28.3625Q404.8781 27.675 405.89374 27.315624Q406.90936 26.940624 408.2531 26.940624Q409.58124 26.940624 410.40936 27.253124Q411.2375 27.565624 411.6281 28.05Q412.01874 28.51875 412.175 29.2375Q412.26874 29.690624 412.26874 30.8625L412.26874 33.20625Q412.26874 35.659374 412.3781 36.315624Q412.4875 36.95625 412.83124 37.55L410.9875 37.55Q410.72186 37.003124 410.64374 36.26875ZM410.4875 32.346874Q409.53436 32.7375 407.6125 33.003124Q406.53436 33.159374 406.08124 33.3625Q405.64374 33.55 405.39374 33.925Q405.14374 34.3 405.14374 34.76875Q405.14374 35.471874 405.675 35.940624Q406.20624 36.409374 407.2375 36.409374Q408.2531 36.409374 409.03436 35.971874Q409.83124 35.51875 410.20624 34.753124Q410.4875 34.14375 410.4875 32.9875L410.4875 32.346874ZM413.9406 37.55L413.9406 36.128124L420.55 28.55Q419.425 28.596874 418.5656 28.596874L414.33124 28.596874L414.33124 27.175L422.8156 27.175L422.8156 28.346874L417.1906 34.925L416.1125 36.128124Q417.28436 36.034374 418.33124 36.034374L423.1281 36.034374L423.1281 37.55L413.9406 37.55ZM422.55 37.8L426.70624 22.9875L428.1125 22.9875L423.97186 37.8L422.55 37.8ZM429.90936 41.51875L429.90936 23.2375L433.78436 23.2375L433.78436 24.690624L431.65936 24.690624L431.65936 40.065624L433.78436 40.065624L433.78436 41.51875L429.90936 41.51875ZM436.1281 37.55L436.1281 23.2375L446.4875 23.2375L446.4875 24.925L438.03436 24.925L438.03436 29.3L445.9406 29.3L445.9406 30.9875L438.03436 30.9875L438.03436 35.8625L446.8156 35.8625L446.8156 37.55L436.1281 37.55ZM455.65936 37.55L455.65936 36.01875Q454.45624 37.784374 452.3781 37.784374Q451.45624 37.784374 450.65936 37.440624Q449.8625 37.08125 449.47186 36.55Q449.09686 36.01875 448.9406 35.2375Q448.83124 34.721874 448.83124 33.596874L448.83124 27.175L450.58124 27.175L450.58124 32.925Q450.58124 34.3 450.6906 34.784374Q450.8625 35.471874 451.39374 35.878124Q451.9406 36.26875 452.72186 36.26875Q453.51874 36.26875 454.20624 35.8625Q454.90936 35.45625 455.1906 34.76875Q455.4875 34.065624 455.4875 32.7375L455.4875 27.175L457.2375 27.175L457.2375 37.55L455.65936 37.55ZM458.84686 37.55L458.84686 27.175L460.425 27.175L460.425 28.753124Q461.03436 27.64375 461.55 27.3Q462.0656 26.940624 462.675 26.940624Q463.5656 26.940624 464.4875 27.503124L463.8781 29.14375Q463.2375 28.753124 462.59686 28.753124Q462.01874 28.753124 461.55 29.1125Q461.09686 29.45625 460.89374 30.065624Q460.6125 31.003124 460.6125 32.1125L460.6125 37.55L458.84686 37.55ZM465.22186 32.3625Q465.22186 29.4875 466.8156 28.096874Q468.15936 26.940624 470.08124 26.940624Q472.22186 26.940624 473.5656 28.346874Q474.925 29.753124 474.925 32.221874Q474.925 34.221874 474.33124 35.378124Q473.7375 36.51875 472.58124 37.159374Q471.4406 37.784374 470.08124 37.784374Q467.89374 37.784374 466.55 36.39375Q465.22186 34.9875 465.22186 32.3625ZM467.01874 32.3625Q467.01874 34.3625 467.8781 35.346874Q468.7531 36.33125 470.08124 36.33125Q471.39374 36.33125 472.2531 35.346874Q473.1281 34.346874 473.1281 32.3Q473.1281 30.378124 472.2531 29.39375Q471.3781 28.39375 470.08124 28.39375Q468.7531 28.39375 467.8781 29.39375Q467.01874 30.378124 467.01874 32.3625ZM479.8156 41.51875L475.925 41.51875L475.925 40.065624L478.05 40.065624L478.05 24.690624L475.925 24.690624L475.925 23.2375L479.8156 23.2375L479.8156 41.51875Z" fill-rule="nonzero"/></svg>